<svg xmlns="http://www.w3.org/2000/svg" viewBox="0 0 400 400"><defs><linearGradient id="sky" x1="0" y1="0" x2="0" y2="1"><stop offset="0" stop-color="#2a0a12"/><stop offset="1" stop-color="#12060a"/></linearGradient>
<radialGradient id="glow" cx="50%" cy="55%" r="50%"><stop offset="0" stop-color="#fff" stop-opacity=".22"/><stop offset="1" stop-color="#fff" stop-opacity="0"/></radialGradient></defs>
<rect width="400" height="400" fill="url(#sky)"/><line x1="15" y1="108.70012780558318" x2="15" y2="157.6988497497514" stroke="#ff3b5c" stroke-width="2" opacity="0.45"/><rect x="10" y="116.70012780558318" width="10" height="32.99872194416821" rx="2" fill="#ff3b5c" opacity="0.45"/><line x1="37" y1="120.48999062972143" x2="37" y2="183.58497210917994" stroke="#ff3b5c" stroke-width="2" opacity="0.45"/><rect x="32" y="128.48999062972143" width="10" height="47.09498147945851" rx="2" fill="#ff3b5c" opacity="0.45"/><line x1="59" y1="142.4513352625072" x2="59" y2="174.31279633194208" stroke="#ff3b5c" stroke-width="2" opacity="0.45"/><rect x="54" y="150.4513352625072" width="10" height="15.861461069434881" rx="2" fill="#ff3b5c" opacity="0.45"/><line x1="81" y1="147.02035813545808" x2="81" y2="196.63743475312367" stroke="#ff3b5c" stroke-width="2" opacity="0.45"/><rect x="76" y="155.02035813545808" width="10" height="33.61707661766559" rx="2" fill="#ff3b5c" opacity="0.45"/><line x1="103" y1="159.3454237775877" x2="103" y2="220.18015044461936" stroke="#ff3b5c" stroke-width="2" opacity="0.45"/><rect x="98" y="167.3454237775877" width="10" height="44.834726667031646" rx="2" fill="#ff3b5c" opacity="0.45"/><line x1="125" y1="180.22683742130175" x2="125" y2="211.58633431931958" stroke="#ff3b5c" stroke-width="2" opacity="0.45"/><rect x="120" y="188.22683742130175" width="10" height="15.359496898017824" rx="2" fill="#ff3b5c" opacity="0.45"/><line x1="147" y1="182.96282946132123" x2="147" y2="248.40039355121553" stroke="#ff3b5c" stroke-width="2" opacity="0.45"/><rect x="142" y="190.96282946132123" width="10" height="49.437564089894295" rx="2" fill="#ff3b5c" opacity="0.45"/><line x1="169" y1="204.446905575227" x2="169" y2="252.7939648856409" stroke="#ff3b5c" stroke-width="2" opacity="0.45"/><rect x="164" y="212.446905575227" width="10" height="32.3470593104139" rx="2" fill="#ff3b5c" opacity="0.45"/><line x1="191" y1="217.91005615796894" x2="191" y2="261.01384688261896" stroke="#ff3b5c" stroke-width="2" opacity="0.45"/><rect x="186" y="225.91005615796894" width="10" height="27.103790724650025" rx="2" fill="#ff3b5c" opacity="0.45"/><line x1="213" y1="203.64115868555382" x2="213" y2="250.55315072415397" stroke="#22e58b" stroke-width="2" opacity="0.45"/><rect x="208" y="211.64115868555382" width="10" height="30.911992038600147" rx="2" fill="#22e58b" opacity="0.45"/><line x1="235" y1="180.06581680849195" x2="235" y2="239.4339700266719" stroke="#22e58b" stroke-width="2" opacity="0.45"/><rect x="230" y="188.06581680849195" width="10" height="43.36815321817994" rx="2" fill="#22e58b" opacity="0.45"/><line x1="257" y1="198.7969428426586" x2="257" y2="244.32644859189168" stroke="#ff3b5c" stroke-width="2" opacity="0.45"/><rect x="252" y="206.7969428426586" width="10" height="29.529505749233067" rx="2" fill="#ff3b5c" opacity="0.45"/><line x1="279" y1="211.816408184357" x2="279" y2="245.26928351353854" stroke="#ff3b5c" stroke-width="2" opacity="0.45"/><rect x="274" y="219.816408184357" width="10" height="17.452875329181552" rx="2" fill="#ff3b5c" opacity="0.45"/><line x1="301" y1="218.81090779835358" x2="301" y2="252.1302883042954" stroke="#ff3b5c" stroke-width="2" opacity="0.45"/><rect x="296" y="226.81090779835358" width="10" height="17.31938050594181" rx="2" fill="#ff3b5c" opacity="0.45"/><line x1="323" y1="224.62951341085136" x2="323" y2="269.04035981558263" stroke="#ff3b5c" stroke-width="2" opacity="0.45"/><rect x="318" y="232.62951341085136" width="10" height="28.410846404731274" rx="2" fill="#ff3b5c" opacity="0.45"/><line x1="345" y1="236.17295478237793" x2="345" y2="278.7927730907686" stroke="#ff3b5c" stroke-width="2" opacity="0.45"/><rect x="340" y="244.17295478237793" width="10" height="26.619818308390677" rx="2" fill="#ff3b5c" opacity="0.45"/><line x1="367" y1="245.53469388838857" x2="367" y2="301.0163943702355" stroke="#ff3b5c" stroke-width="2" opacity="0.45"/><rect x="362" y="253.53469388838857" width="10" height="39.48170048184693" rx="2" fill="#ff3b5c" opacity="0.45"/><line x1="389" y1="235.08971399860457" x2="389" y2="284.6295252549462" stroke="#22e58b" stroke-width="2" opacity="0.45"/><rect x="384" y="243.08971399860457" width="10" height="33.539811256341636" rx="2" fill="#22e58b" opacity="0.45"/><path d="M0 360h400" stroke="#ff3b5c" opacity=".3"/><text x="200" y="60" text-anchor="middle" font-family="monospace" font-size="38" font-weight="700" fill="#ff3b5c" opacity=".25">-87.4%</text>
<ellipse cx="200" cy="378" rx="130" ry="14" fill="#000" opacity=".35"/>
<g><path d="M120 360 q-6 -110 80 -116 q86 6 80 116z" fill="#3a6fd8" stroke="#111" stroke-width="5" stroke-linejoin="round" stroke-linecap="round"/><path d="M182 248 l18 30 18 -30" fill="#fff" stroke="#111" stroke-width="3.5" stroke-linejoin="round" stroke-linecap="round"/><g><path d="M64 300 q-26 40 10 64 h60 q30 -26 6 -64 q-10 -10 -38 -10 q-28 0 -38 10z" fill="#b58a4a" stroke="#111" stroke-width="5" stroke-linejoin="round" stroke-linecap="round"/><path d="M86 290 q14 -18 28 0" fill="none" stroke="#111" stroke-width="5" stroke-linejoin="round" stroke-linecap="round"/><text x="104" y="346" text-anchor="middle" font-size="34" font-weight="900" fill="#5a3d16" font-family="Arial Black, sans-serif">$</text></g><g><path d="M268 300 q-26 40 10 64 h60 q30 -26 6 -64 q-10 -10 -38 -10 q-28 0 -38 10z" fill="#b58a4a" stroke="#111" stroke-width="5" stroke-linejoin="round" stroke-linecap="round"/><path d="M290 290 q14 -18 28 0" fill="none" stroke="#111" stroke-width="5" stroke-linejoin="round" stroke-linecap="round"/><text x="308" y="346" text-anchor="middle" font-size="34" font-weight="900" fill="#5a3d16" font-family="Arial Black, sans-serif">$</text></g><path d="M132 300 l-24 -6 M268 300 l24 -6" stroke="#111" stroke-width="5" stroke-linejoin="round" stroke-linecap="round"/><ellipse cx="200" cy="170" rx="74" ry="80" fill="#f1c9a0" stroke="#111" stroke-width="5" stroke-linejoin="round" stroke-linecap="round"/><path d="M134 140 q20 -64 70 -60 q48 4 62 56 q-20 -20 -62 -22 q-44 0 -70 26z" fill="#4a3426" stroke="#111" stroke-width="3.5" stroke-linejoin="round" stroke-linecap="round"/><path d="M157 162.5 l15 7.5 l-15 7.5" fill="none" stroke="#111" stroke-width="5" stroke-linejoin="round" stroke-linecap="round"/><path d="M243 162.5 l-15 7.5 l15 7.5" fill="none" stroke="#111" stroke-width="5" stroke-linejoin="round" stroke-linecap="round"/><path d="M172 182 q-6 30 4 60" stroke="#4fc3ff" stroke-width="9" fill="none" stroke-linecap="round" opacity=".9"/><path d="M228 182 q6 30 -4 60" stroke="#4fc3ff" stroke-width="9" fill="none" stroke-linecap="round" opacity=".9"/><path d="M172 216 q14 -14 28 0 t28 0" fill="none" stroke="#111" stroke-width="5" stroke-linejoin="round" stroke-linecap="round"/><g transform="rotate(-20 240 120)"><rect x="214" y="111" width="52" height="18" rx="6" fill="#f2d6b3" stroke="#111" stroke-width="3.5" stroke-linejoin="round" stroke-linecap="round"/><rect x="232" y="111" width="16" height="18" fill="#e2bf96"/><circle cx="237" cy="118" r="1.6" fill="#b08a63"/><circle cx="243" cy="123" r="1.6" fill="#b08a63"/></g></g><rect width="400" height="400" fill="#ff0030" opacity=".12"/>
<text x="200" y="52" text-anchor="middle" font-size="30" font-weight="900" fill="#fff" stroke="#000" stroke-width="7" paint-order="stroke" stroke-linejoin="round" font-family="Impact, 'Anton', 'Arial Black', 'Helvetica Neue', sans-serif" letter-spacing="1">BOUGHT THE TOP</text><text x="200" y="386" text-anchor="middle" font-size="30" font-weight="900" fill="#fff" stroke="#000" stroke-width="7" paint-order="stroke" stroke-linejoin="round" font-family="Impact, 'Anton', 'Arial Black', 'Helvetica Neue', sans-serif" letter-spacing="1">STILL HOLDING</text></svg>