<svg xmlns="http://www.w3.org/2000/svg" viewBox="0 0 400 400"><defs><linearGradient id="sky" x1="0" y1="0" x2="0" y2="1"><stop offset="0" stop-color="#103a24"/><stop offset="1" stop-color="#081a10"/></linearGradient>
<radialGradient id="glow" cx="50%" cy="55%" r="50%"><stop offset="0" stop-color="#fff" stop-opacity=".22"/><stop offset="1" stop-color="#fff" stop-opacity="0"/></radialGradient></defs>
<rect width="400" height="400" fill="url(#sky)"/><path d="M0 0q60 80 0 160M400 0q-70 90 0 180M60 0q30 60-20 120M340 0q-30 70 20 130" stroke="#1f7a3e" stroke-width="18" fill="none" opacity=".7"/><g fill="#ffd23f" opacity=".9"><path d="M40 300q20-30 40-10q-20 0-40 10z"/><path d="M330 280q20-30 40-10q-20 0-40 10z"/><path d="M300 330q20-30 40-10q-20 0-40 10z"/></g><rect y="350" width="400" height="50" fill="#0b2414"/>
<ellipse cx="200" cy="370" rx="110" ry="14" fill="#000" opacity=".35"/>
<g transform="translate(50 80) scale(3)"><path d="M24 26l14 18-18 6zM76 26l-14 18 18 6z" fill="#f4d27a"/><ellipse cx="50" cy="58" rx="29" ry="25" fill="#f4d27a"/><path d="M30 44l8 3M70 44l-8 3" stroke="#d1af57" stroke-width="3"/><circle cx="38" cy="54" r="6" fill="#fff"/><circle cx="62" cy="54" r="6" fill="#fff"/><circle cx="39.5" cy="55.5" r="2.7" fill="#111"/><circle cx="63.5" cy="55.5" r="2.7" fill="#111"/><path d="M31 53h14M55 53h14" stroke="#1a1a1a" stroke-width="3"/><path d="M47 63l3 3 3-3z" fill="#e88"/><path d="M44 69q7.199999999999999 6 12 -4" fill="none" stroke="#3a1a1a" stroke-width="3" stroke-linecap="round"/><path d="M22 62h14M22 67h14M64 62h14M64 67h14" stroke="#333" stroke-width="1.2" opacity=".6"/><path d="M26 44h48v3l-4 8h-14l-4-6h-4l-4 6H30l-4-8z" fill="#0b0b0f"/><path d="M30 46l8 0" stroke="#5ff" stroke-width="1.5" opacity=".7"/></g></svg>