<svg xmlns="http://www.w3.org/2000/svg" viewBox="0 0 400 400"><defs><linearGradient id="sky" x1="0" y1="0" x2="0" y2="1"><stop offset="0" stop-color="#0a3050"/><stop offset="1" stop-color="#04121f"/></linearGradient>
<radialGradient id="glow" cx="50%" cy="55%" r="50%"><stop offset="0" stop-color="#fff" stop-opacity=".22"/><stop offset="1" stop-color="#fff" stop-opacity="0"/></radialGradient></defs>
<rect width="400" height="400" fill="url(#sky)"/><g fill="none" stroke="#5bc0eb" stroke-width="3" opacity=".35"><path d="M0 120q50-20 100 0t100 0 100 0 100 0"/><path d="M0 170q50-20 100 0t100 0 100 0 100 0"/></g><g fill="#9fe3ff" opacity=".35"><circle cx="60" cy="260" r="6"/><circle cx="80" cy="230" r="4"/><circle cx="340" cy="280" r="7"/><circle cx="320" cy="250" r="3"/></g><path d="M0 360q100-30 200 0t200 0v40H0z" fill="#e8d29a" opacity=".6"/>
<ellipse cx="200" cy="378" rx="130" ry="14" fill="#000" opacity=".35"/>
<g><path d="M300 250 l70 -60 v120z" fill="#2f86c2" stroke="#111" stroke-width="5" stroke-linejoin="round" stroke-linecap="round"/><ellipse cx="190" cy="250" rx="150" ry="110" fill="#46a8e0" stroke="#111" stroke-width="5" stroke-linejoin="round" stroke-linecap="round"/><path d="M60 270 q130 80 260 0 q-20 70 -130 74 q-110 -4 -130 -74z" fill="#d6f0ff" stroke="#111" stroke-width="3.5" stroke-linejoin="round" stroke-linecap="round"/><ellipse cx="106" cy="210" rx="16" ry="16" fill="#fff" stroke="#111" stroke-width="3.5" stroke-linejoin="round" stroke-linecap="round"/><ellipse cx="194" cy="210" rx="16" ry="16" fill="#fff" stroke="#111" stroke-width="3.5" stroke-linejoin="round" stroke-linecap="round"/><circle cx="109.2" cy="214" r="7.2" fill="#111"/><circle cx="197.2" cy="214" r="7.2" fill="#111"/><path d="M88 208 h36 M176 208 h36" stroke="#111" stroke-width="5" stroke-linejoin="round" stroke-linecap="round"/><path d="M90 262 q90 70 180 -6 q-80 30 -180 6z" fill="#7a1f2a" stroke="#111" stroke-width="5" stroke-linejoin="round" stroke-linecap="round"/><path d="M104 268 h150" stroke="#fff" stroke-width="7"/><path d="M190 140 q-4 -40 -30 -60 M190 140 q4 -44 30 -64 M190 140 v-70" stroke="#9fe3ff" stroke-width="8" stroke-linecap="round" fill="none"/><path d="M250 190 q-10 16 0 22 q10 -6 0 -22z" fill="#8fd8ff" stroke="#111" stroke-width="3.5" stroke-linejoin="round" stroke-linecap="round"/></g>
<text x="200" y="52" text-anchor="middle" font-size="36" font-weight="900" fill="#fff" stroke="#000" stroke-width="7" paint-order="stroke" stroke-linejoin="round" font-family="Impact, 'Anton', 'Arial Black', 'Helvetica Neue', sans-serif" letter-spacing="1">MOVED 1 COIN</text><text x="200" y="386" text-anchor="middle" font-size="36" font-weight="900" fill="#fff" stroke="#000" stroke-width="7" paint-order="stroke" stroke-linejoin="round" font-family="Impact, 'Anton', 'Arial Black', 'Helvetica Neue', sans-serif" letter-spacing="1">MARKET: -20%</text></svg>