<svg xmlns="http://www.w3.org/2000/svg" viewBox="0 0 400 400"><defs><linearGradient id="sky" x1="0" y1="0" x2="0" y2="1"><stop offset="0" stop-color="#3a2a05"/><stop offset="1" stop-color="#140d02"/></linearGradient>
<radialGradient id="glow" cx="50%" cy="55%" r="50%"><stop offset="0" stop-color="#fff" stop-opacity=".22"/><stop offset="1" stop-color="#fff" stop-opacity="0"/></radialGradient></defs>
<rect width="400" height="400" fill="url(#sky)"/><rect x="0" y="0" width="400" height="400" fill="url(#glow)"/><path d="M110 360V150l30-40 30 40 30-50 30 50 30-40 30 40v210z" fill="#7a5a10" stroke="#ffd23f" stroke-width="4"/><rect x="0" y="350" width="400" height="50" fill="#5a0f1a"/><path d="M0 352h400" stroke="#ffd23f" stroke-width="3"/><g fill="#ffd23f"><circle cx="40" cy="310" r="10"/><text x="40" y="314" text-anchor="middle" font-size="11" font-weight="700" fill="#7a5a10">$</text><circle cx="90" cy="306" r="10"/><text x="90" y="310" text-anchor="middle" font-size="11" font-weight="700" fill="#7a5a10">$</text><circle cx="310" cy="322" r="10"/><text x="310" y="326" text-anchor="middle" font-size="11" font-weight="700" fill="#7a5a10">$</text><circle cx="360" cy="318" r="10"/><text x="360" y="322" text-anchor="middle" font-size="11" font-weight="700" fill="#7a5a10">$</text></g>
<ellipse cx="200" cy="378" rx="130" ry="14" fill="#000" opacity=".35"/>
<g><path d="M70 380 q20 -150 130 -150 q110 0 130 150z" fill="#b3283c" stroke="#111" stroke-width="5" stroke-linejoin="round" stroke-linecap="round"/><path d="M120 380 l80 -120 80 120" fill="#7a1525"/><ellipse cx="200" cy="200" rx="104" ry="96" fill="#b45cff" stroke="#111" stroke-width="5" stroke-linejoin="round" stroke-linecap="round"/><path d="M146 188 l16 8 l-16 8" fill="none" stroke="#111" stroke-width="5" stroke-linejoin="round" stroke-linecap="round"/><path d="M254 188 l-16 8 l16 8" fill="none" stroke="#111" stroke-width="5" stroke-linejoin="round" stroke-linecap="round"/><path d="M162 208.8 q-6 30 4 60" stroke="#4fc3ff" stroke-width="9" fill="none" stroke-linecap="round" opacity=".9"/><path d="M238 208.8 q6 30 -4 60" stroke="#4fc3ff" stroke-width="9" fill="none" stroke-linecap="round" opacity=".9"/><path d="M170 250 q15 -14 30 0 t30 0" fill="none" stroke="#111" stroke-width="5" stroke-linejoin="round" stroke-linecap="round"/><path d="M118 120 l14 -64 30 40 38 -62 38 62 30 -40 14 64z" fill="#ffd23f" stroke="#111" stroke-width="5" stroke-linejoin="round" stroke-linecap="round"/><circle cx="162" cy="96" r="7" fill="#ff3d81"/><circle cx="200" cy="80" r="8" fill="#3fa7ff"/><circle cx="238" cy="96" r="7" fill="#22e58b"/><path d="M318 380 L340 170" stroke="#8a5a1a" stroke-width="10" stroke-linecap="round"/><circle cx="342" cy="160" r="18" fill="#ffd23f" stroke="#111" stroke-width="3.5" stroke-linejoin="round" stroke-linecap="round"/><g transform="rotate(-25 150 150)"><rect x="124" y="141" width="52" height="18" rx="6" fill="#f2d6b3" stroke="#111" stroke-width="3.5" stroke-linejoin="round" stroke-linecap="round"/><rect x="142" y="141" width="16" height="18" fill="#e2bf96"/><circle cx="147" cy="148" r="1.6" fill="#b08a63"/><circle cx="153" cy="153" r="1.6" fill="#b08a63"/></g><path d="M250 70 l10 20 -8 18" stroke="#111" stroke-width="4" fill="none"/></g><rect width="400" height="400" fill="#ff0030" opacity=".12"/>
<text x="200" y="52" text-anchor="middle" font-size="30" font-weight="900" fill="#fff" stroke="#000" stroke-width="7" paint-order="stroke" stroke-linejoin="round" font-family="Impact, 'Anton', 'Arial Black', 'Helvetica Neue', sans-serif" letter-spacing="1">BOW TO THE KING</text><text x="200" y="386" text-anchor="middle" font-size="36" font-weight="900" fill="#fff" stroke="#000" stroke-width="7" paint-order="stroke" stroke-linejoin="round" font-family="Impact, 'Anton', 'Arial Black', 'Helvetica Neue', sans-serif" letter-spacing="1">OF ALL MEMES</text></svg>