<svg xmlns="http://www.w3.org/2000/svg" viewBox="0 0 400 400"><defs><linearGradient id="sky" x1="0" y1="0" x2="0" y2="1"><stop offset="0" stop-color="#3a2a05"/><stop offset="1" stop-color="#140d02"/></linearGradient>
<radialGradient id="glow" cx="50%" cy="55%" r="50%"><stop offset="0" stop-color="#fff" stop-opacity=".22"/><stop offset="1" stop-color="#fff" stop-opacity="0"/></radialGradient></defs>
<rect width="400" height="400" fill="url(#sky)"/><rect x="0" y="0" width="400" height="400" fill="url(#glow)"/><path d="M110 360V150l30-40 30 40 30-50 30 50 30-40 30 40v210z" fill="#7a5a10" stroke="#ffd23f" stroke-width="4"/><rect x="0" y="350" width="400" height="50" fill="#5a0f1a"/><path d="M0 352h400" stroke="#ffd23f" stroke-width="3"/><g fill="#ffd23f"><circle cx="40" cy="310" r="10"/><text x="40" y="314" text-anchor="middle" font-size="11" font-weight="700" fill="#7a5a10">$</text><circle cx="90" cy="306" r="10"/><text x="90" y="310" text-anchor="middle" font-size="11" font-weight="700" fill="#7a5a10">$</text><circle cx="310" cy="322" r="10"/><text x="310" y="326" text-anchor="middle" font-size="11" font-weight="700" fill="#7a5a10">$</text><circle cx="360" cy="318" r="10"/><text x="360" y="322" text-anchor="middle" font-size="11" font-weight="700" fill="#7a5a10">$</text></g>
<ellipse cx="200" cy="370" rx="110" ry="14" fill="#000" opacity=".35"/>
<g transform="translate(50 80) scale(3)"><ellipse cx="50" cy="54" rx="28" ry="28" fill="#ffd23f"/><ellipse cx="50" cy="66" rx="18" ry="7" fill="#ff8c2b"/><path d="M32 66q18 6 36 0" stroke="#d96d10" stroke-width="2" fill="none"/><circle cx="39" cy="48" r="6" fill="#fff"/><circle cx="61" cy="48" r="6" fill="#fff"/><circle cx="40.5" cy="49.5" r="2.7" fill="#111"/><circle cx="62.5" cy="49.5" r="2.7" fill="#111"/><path d="M32 47h14M54 47h14" stroke="#1a1a1a" stroke-width="3"/><path d="M32 30l6-14 6 9 6-12 6 12 6-9 6 14z" fill="#ffd23f" stroke="#c99a00" stroke-width="1.5"/><path d="M30 80q20 14 40 0" fill="none" stroke="#ffd23f" stroke-width="4" stroke-dasharray="4 2"/><circle cx="50" cy="90" r="5" fill="#ffd23f"/><path d="M30 46L2 30M66 46L98 30" stroke="#ff2a2a" stroke-width="4" stroke-linecap="round"/><path d="M30 46L2 30M66 46L98 30" stroke="#fff" stroke-width="1.5" stroke-linecap="round"/></g></svg>