<svg xmlns="http://www.w3.org/2000/svg" viewBox="0 0 400 260">
<defs><linearGradient id="w" x1="0" y1="0" x2="0" y2="1"><stop offset="0" stop-color="#101226"/><stop offset="1" stop-color="#0a0a12"/></linearGradient>
<linearGradient id="rgb" x1="0" x2="1"><stop offset="0" stop-color="#ff3d81"/><stop offset=".5" stop-color="#3fa7ff"/><stop offset="1" stop-color="#22e58b"/></linearGradient></defs>
<rect width="400" height="200" fill="url(#w)"/><rect y="200" width="400" height="60" fill="#1a1a30"/><rect x="290" y="30" width="80" height="70" rx="4" fill="#0e1a33" stroke="#3a3f55" stroke-width="4"/><g transform="translate(290 30) scale(.2 .175)"><circle cx="95.4" cy="213.9" r="2.07" fill="#fff" opacity="0.82"/><circle cx="153.1" cy="28.1" r="2.07" fill="#fff" opacity="0.30"/><circle cx="224.0" cy="240.9" r="1.33" fill="#fff" opacity="0.79"/><circle cx="190.0" cy="155.0" r="1.08" fill="#fff" opacity="0.42"/><circle cx="250.7" cy="104.7" r="0.72" fill="#fff" opacity="0.88"/><circle cx="268.6" cy="238.9" r="1.16" fill="#fff" opacity="0.67"/><circle cx="286.7" cy="238.2" r="1.44" fill="#fff" opacity="0.35"/><circle cx="124.9" cy="217.7" r="1.96" fill="#fff" opacity="0.87"/><circle cx="60.3" cy="4.0" r="1.08" fill="#fff" opacity="0.31"/><circle cx="299.6" cy="27.1" r="1.06" fill="#fff" opacity="0.51"/><circle cx="248.1" cy="110.0" r="2.12" fill="#fff" opacity="0.31"/><circle cx="282.3" cy="41.4" r="1.26" fill="#fff" opacity="0.82"/><circle cx="32.6" cy="167.0" r="0.93" fill="#fff" opacity="0.42"/><circle cx="81.3" cy="36.1" r="1.83" fill="#fff" opacity="0.26"/><circle cx="83.9" cy="226.1" r="1.97" fill="#fff" opacity="0.45"/><circle cx="17.9" cy="52.4" r="0.66" fill="#fff" opacity="0.47"/><circle cx="166.9" cy="58.4" r="1.56" fill="#fff" opacity="0.32"/><circle cx="346.0" cy="41.0" r="1.89" fill="#fff" opacity="0.88"/><circle cx="173.3" cy="75.9" r="0.51" fill="#fff" opacity="0.42"/><circle cx="296.8" cy="109.7" r="2.10" fill="#fff" opacity="0.82"/><circle cx="178.7" cy="253.0" r="0.70" fill="#fff" opacity="0.34"/><circle cx="148.1" cy="70.0" r="1.75" fill="#fff" opacity="0.21"/><circle cx="324.3" cy="170.0" r="1.80" fill="#fff" opacity="0.31"/><circle cx="319.1" cy="106.3" r="0.62" fill="#fff" opacity="0.73"/><circle cx="124.3" cy="177.3" r="1.62" fill="#fff" opacity="0.45"/><circle cx="289.5" cy="225.9" r="0.50" fill="#fff" opacity="0.56"/><circle cx="397.9" cy="41.2" r="2.04" fill="#fff" opacity="0.51"/><circle cx="144.6" cy="50.0" r="0.76" fill="#fff" opacity="0.29"/><circle cx="226.1" cy="10.6" r="0.63" fill="#fff" opacity="0.20"/><circle cx="344.4" cy="246.8" r="1.35" fill="#fff" opacity="0.83"/><circle cx="134.0" cy="145.5" r="2.20" fill="#fff" opacity="0.87"/><circle cx="118.0" cy="144.8" r="2.19" fill="#fff" opacity="0.69"/><circle cx="297.7" cy="246.1" r="1.62" fill="#fff" opacity="0.62"/><circle cx="83.9" cy="108.0" r="0.94" fill="#fff" opacity="0.63"/><circle cx="176.1" cy="123.8" r="1.01" fill="#fff" opacity="0.60"/><circle cx="293.6" cy="92.3" r="1.67" fill="#fff" opacity="0.61"/><circle cx="368.3" cy="212.7" r="1.77" fill="#fff" opacity="0.62"/><circle cx="101.8" cy="102.8" r="2.03" fill="#fff" opacity="0.80"/><circle cx="295.7" cy="183.0" r="0.41" fill="#fff" opacity="0.22"/><circle cx="260.5" cy="213.0" r="2.14" fill="#fff" opacity="0.26"/></g><path d="M330 30v70M290 65h80" stroke="#3a3f55" stroke-width="3"/><rect x="30" y="34" width="44" height="58" rx="3" fill="#ffd23f"/><g transform="translate(32 40) scale(.4)"><ellipse cx="50" cy="62" rx="32" ry="24" fill="#5fbf4a"/><circle cx="34" cy="40" r="13" fill="#5fbf4a"/><circle cx="66" cy="40" r="13" fill="#5fbf4a"/><ellipse cx="50" cy="70" rx="22" ry="10" fill="#82e26d" opacity=".5"/><circle cx="34" cy="40" r="8" fill="#fff"/><circle cx="66" cy="40" r="8" fill="#fff"/><circle cx="35.5" cy="41.5" r="3.6" fill="#111"/><circle cx="67.5" cy="41.5" r="3.6" fill="#111"/><path d="M25 39h18M57 39h18" stroke="#1a1a1a" stroke-width="3"/><path d="M28 64q22 12 44 0" fill="none" stroke="#3c9c27" stroke-width="4" stroke-linecap="round"/></g><rect x="86" y="30" width="40" height="40" rx="3" fill="#3fa7ff"/><text x="106" y="57" text-anchor="middle" font-size="22" font-weight="800" fill="#fff" font-family="sans-serif">₿</text><rect x="200" y="30" width="70" height="30" rx="4" fill="#22e58b" opacity=".85"/><text x="235" y="51" text-anchor="middle" font-size="14" font-weight="800" fill="#062" font-family="sans-serif">HODL</text><rect x="0" y="196" width="400" height="5" fill="url(#rgb)" opacity="0.88"/><rect x="330" y="110" width="30" height="92" rx="3" fill="#15182a" stroke="#2c3550" stroke-width="2"/><rect x="334" y="116" width="22" height="8" rx="1" fill="#0b0f18"/><circle cx="352" cy="120" r="1.6" fill="#3fa7ff"/><rect x="334" y="130" width="22" height="8" rx="1" fill="#0b0f18"/><circle cx="352" cy="134" r="1.6" fill="#22e58b"/><rect x="334" y="144" width="22" height="8" rx="1" fill="#0b0f18"/><circle cx="352" cy="148" r="1.6" fill="#3fa7ff"/><rect x="334" y="158" width="22" height="8" rx="1" fill="#0b0f18"/><circle cx="352" cy="162" r="1.6" fill="#22e58b"/><rect x="334" y="172" width="22" height="8" rx="1" fill="#0b0f18"/><circle cx="352" cy="176" r="1.6" fill="#3fa7ff"/><rect x="334" y="186" width="22" height="8" rx="1" fill="#0b0f18"/><circle cx="352" cy="190" r="1.6" fill="#22e58b"/><rect x="296" y="110" width="30" height="92" rx="3" fill="#15182a" stroke="#2c3550" stroke-width="2"/><rect x="300" y="116" width="22" height="8" rx="1" fill="#0b0f18"/><circle cx="318" cy="120" r="1.6" fill="#3fa7ff"/><rect x="300" y="130" width="22" height="8" rx="1" fill="#0b0f18"/><circle cx="318" cy="134" r="1.6" fill="#22e58b"/><rect x="300" y="144" width="22" height="8" rx="1" fill="#0b0f18"/><circle cx="318" cy="148" r="1.6" fill="#3fa7ff"/><rect x="300" y="158" width="22" height="8" rx="1" fill="#0b0f18"/><circle cx="318" cy="162" r="1.6" fill="#22e58b"/><rect x="300" y="172" width="22" height="8" rx="1" fill="#0b0f18"/><circle cx="318" cy="176" r="1.6" fill="#3fa7ff"/><rect x="300" y="186" width="22" height="8" rx="1" fill="#0b0f18"/><circle cx="318" cy="190" r="1.6" fill="#22e58b"/><rect x="60" y="170" width="260" height="12" rx="3" fill="#2b2f40"/><rect x="68" y="182" width="8" height="40" fill="#3a2a1e"/><rect x="304" y="182" width="8" height="40" fill="#3a2a1e"/><rect x="106" y="118" width="50" height="38" rx="4" fill="#0b0f18" stroke="#2c3550" stroke-width="3"/><g transform="translate(109 121) scale(0.11 0.08)"><line x1="15" y1="164.07718780916184" x2="15" y2="233.32475691009313" stroke="#22e58b" stroke-width="2" opacity="0.95"/><rect x="10" y="172.07718780916184" width="10" height="53.24756910093129" rx="2" fill="#22e58b" opacity="0.95"/><line x1="37" y1="133.7031343318522" x2="37" y2="213.03406547382474" stroke="#22e58b" stroke-width="2" opacity="0.95"/><rect x="32" y="141.7031343318522" width="10" height="63.33093114197254" rx="2" fill="#22e58b" opacity="0.95"/><line x1="59" y1="130.20778623316437" x2="59" y2="185.2753569772467" stroke="#22e58b" stroke-width="2" opacity="0.95"/><rect x="54" y="138.20778623316437" width="10" height="39.06757074408233" rx="2" fill="#22e58b" opacity="0.95"/><line x1="81" y1="145.0862917099148" x2="81" y2="207.63909066282213" stroke="#ff3b5c" stroke-width="2" opacity="0.95"/><rect x="76" y="153.0862917099148" width="10" height="46.552798952907324" rx="2" fill="#ff3b5c" opacity="0.95"/><line x1="103" y1="167.19044823106378" x2="103" y2="194.9128777841106" stroke="#ff3b5c" stroke-width="2" opacity="0.95"/><rect x="98" y="175.19044823106378" width="10" height="11.722429553046823" rx="2" fill="#ff3b5c" opacity="0.95"/><line x1="125" y1="167.09388830512762" x2="125" y2="242.67163532972336" stroke="#ff3b5c" stroke-width="2" opacity="0.95"/><rect x="120" y="175.09388830512762" width="10" height="59.57774702459574" rx="2" fill="#ff3b5c" opacity="0.95"/><line x1="147" y1="189.91772144753486" x2="147" y2="275.56812514644116" stroke="#ff3b5c" stroke-width="2" opacity="0.95"/><rect x="142" y="197.91772144753486" width="10" height="69.6504036989063" rx="2" fill="#ff3b5c" opacity="0.95"/><line x1="169" y1="189.79785687290132" x2="169" y2="244.62570845521986" stroke="#22e58b" stroke-width="2" opacity="0.95"/><rect x="164" y="197.79785687290132" width="10" height="38.827851582318544" rx="2" fill="#22e58b" opacity="0.95"/><line x1="191" y1="188.13231290411204" x2="191" y2="227.55394597072154" stroke="#22e58b" stroke-width="2" opacity="0.95"/><rect x="186" y="196.13231290411204" width="10" height="23.421633066609502" rx="2" fill="#22e58b" opacity="0.95"/><line x1="213" y1="144.86093829199672" x2="213" y2="221.9522617869079" stroke="#22e58b" stroke-width="2" opacity="0.95"/><rect x="208" y="152.86093829199672" width="10" height="61.091323494911194" rx="2" fill="#22e58b" opacity="0.95"/><line x1="235" y1="149.5890764677897" x2="235" y2="194.27521376963705" stroke="#22e58b" stroke-width="2" opacity="0.95"/><rect x="230" y="157.5890764677897" width="10" height="28.68613730184734" rx="2" fill="#22e58b" opacity="0.95"/><line x1="257" y1="125.24638474173844" x2="257" y2="184.23056293837726" stroke="#22e58b" stroke-width="2" opacity="0.95"/><rect x="252" y="133.24638474173844" width="10" height="42.98417819663882" rx="2" fill="#22e58b" opacity="0.95"/><line x1="279" y1="141.09387057926506" x2="279" y2="213.53990318719298" stroke="#ff3b5c" stroke-width="2" opacity="0.95"/><rect x="274" y="149.09387057926506" width="10" height="56.44603260792792" rx="2" fill="#ff3b5c" opacity="0.95"/><line x1="301" y1="125.93249996006489" x2="301" y2="190.13737431913614" stroke="#22e58b" stroke-width="2" opacity="0.95"/><rect x="296" y="133.9324999600649" width="10" height="48.204874359071255" rx="2" fill="#22e58b" opacity="0.95"/><line x1="323" y1="148.00099041033536" x2="323" y2="184.3404577029869" stroke="#ff3b5c" stroke-width="2" opacity="0.95"/><rect x="318" y="156.00099041033536" width="10" height="20.339467292651534" rx="2" fill="#ff3b5c" opacity="0.95"/><line x1="345" y1="131.37824487499893" x2="345" y2="177.14766618795693" stroke="#22e58b" stroke-width="2" opacity="0.95"/><rect x="340" y="139.37824487499893" width="10" height="29.769421312958002" rx="2" fill="#22e58b" opacity="0.95"/><line x1="367" y1="140.70057792495936" x2="367" y2="212.32435399014503" stroke="#ff3b5c" stroke-width="2" opacity="0.95"/><rect x="362" y="148.70057792495936" width="10" height="55.623776065185666" rx="2" fill="#ff3b5c" opacity="0.95"/><line x1="389" y1="106.03945625945926" x2="389" y2="191.45391147956252" stroke="#22e58b" stroke-width="2" opacity="0.95"/><rect x="384" y="114.03945625945926" width="10" height="69.41445522010326" rx="2" fill="#22e58b" opacity="0.95"/></g><rect x="127" y="156" width="8" height="10" fill="#333"/><rect x="162" y="118" width="50" height="38" rx="4" fill="#0b0f18" stroke="#2c3550" stroke-width="3"/><g transform="translate(165 121) scale(0.11 0.08)"><line x1="15" y1="206.13102049892768" x2="15" y2="280.82081550965086" stroke="#ff3b5c" stroke-width="2" opacity="0.95"/><rect x="10" y="214.13102049892768" width="10" height="58.689795010723174" rx="2" fill="#ff3b5c" opacity="0.95"/><line x1="37" y1="228.92072669463232" x2="37" y2="310.4726397912018" stroke="#ff3b5c" stroke-width="2" opacity="0.95"/><rect x="32" y="236.92072669463232" width="10" height="65.55191309656948" rx="2" fill="#ff3b5c" opacity="0.95"/><line x1="59" y1="259.3036609659903" x2="59" y2="299.23388373525813" stroke="#ff3b5c" stroke-width="2" opacity="0.95"/><rect x="54" y="267.3036609659903" width="10" height="23.930222769267857" rx="2" fill="#ff3b5c" opacity="0.95"/><line x1="81" y1="267.11657468462363" x2="81" y2="324.6385513446294" stroke="#ff3b5c" stroke-width="2" opacity="0.95"/><rect x="76" y="275.11657468462363" width="10" height="41.52197666000575" rx="2" fill="#ff3b5c" opacity="0.95"/><line x1="103" y1="286.3606290980242" x2="103" y2="317.52996826404706" stroke="#ff3b5c" stroke-width="2" opacity="0.95"/><rect x="98" y="294.3606290980242" width="10" height="15.169339166022837" rx="2" fill="#ff3b5c" opacity="0.95"/><line x1="125" y1="289.8786509600468" x2="125" y2="346.5451281699352" stroke="#ff3b5c" stroke-width="2" opacity="0.95"/><rect x="120" y="297.8786509600468" width="10" height="40.6664772098884" rx="2" fill="#ff3b5c" opacity="0.95"/><line x1="147" y1="303.53594345925376" x2="147" y2="386.29540451662615" stroke="#ff3b5c" stroke-width="2" opacity="0.95"/><rect x="142" y="311.53594345925376" width="10" height="66.75946105737239" rx="2" fill="#ff3b5c" opacity="0.95"/><line x1="169" y1="276.8014654540457" x2="169" y2="359.595030491706" stroke="#22e58b" stroke-width="2" opacity="0.95"/><rect x="164" y="284.8014654540457" width="10" height="66.7935650376603" rx="2" fill="#22e58b" opacity="0.95"/><line x1="191" y1="307.76488279690966" x2="191" y2="348.0985345565714" stroke="#ff3b5c" stroke-width="2" opacity="0.95"/><rect x="186" y="315.76488279690966" width="10" height="24.333651759661734" rx="2" fill="#ff3b5c" opacity="0.95"/><line x1="213" y1="314.50189195992425" x2="213" y2="384.800059128087" stroke="#ff3b5c" stroke-width="2" opacity="0.95"/><rect x="208" y="322.50189195992425" width="10" height="54.29816716816276" rx="2" fill="#ff3b5c" opacity="0.95"/><line x1="235" y1="320.772066233214" x2="235" y2="399.227933766786" stroke="#ff3b5c" stroke-width="2" opacity="0.95"/><rect x="230" y="328.772066233214" width="10" height="62.45586753357202" rx="2" fill="#ff3b5c" opacity="0.95"/><line x1="257" y1="328.35662839049473" x2="257" y2="391.64337160950527" stroke="#ff3b5c" stroke-width="2" opacity="0.95"/><rect x="252" y="336.35662839049473" width="10" height="47.28674321901053" rx="2" fill="#ff3b5c" opacity="0.95"/><line x1="279" y1="340.52265109075233" x2="279" y2="379.47734890924767" stroke="#ff3b5c" stroke-width="2" opacity="0.95"/><rect x="274" y="348.52265109075233" width="10" height="22.954697818495333" rx="2" fill="#ff3b5c" opacity="0.95"/><line x1="301" y1="334.8853074950166" x2="301" y2="385.1146925049834" stroke="#ff3b5c" stroke-width="2" opacity="0.95"/><rect x="296" y="342.8853074950166" width="10" height="34.22938500996679" rx="2" fill="#ff3b5c" opacity="0.95"/><line x1="323" y1="300.35962070478126" x2="323" y2="373.73781992169097" stroke="#22e58b" stroke-width="2" opacity="0.95"/><rect x="318" y="308.35962070478126" width="10" height="57.37819921690971" rx="2" fill="#22e58b" opacity="0.95"/><line x1="345" y1="325.1410443210043" x2="345" y2="380.21780424332246" stroke="#ff3b5c" stroke-width="2" opacity="0.95"/><rect x="340" y="333.1410443210043" width="10" height="39.07675992231816" rx="2" fill="#ff3b5c" opacity="0.95"/><line x1="367" y1="335.99633838562295" x2="367" y2="384.00366161437705" stroke="#ff3b5c" stroke-width="2" opacity="0.95"/><rect x="362" y="343.99633838562295" width="10" height="32.0073232287541" rx="2" fill="#ff3b5c" opacity="0.95"/><line x1="389" y1="319.61030099587515" x2="389" y2="400.38969900412485" stroke="#ff3b5c" stroke-width="2" opacity="0.95"/><rect x="384" y="327.61030099587515" width="10" height="64.7793980082497" rx="2" fill="#ff3b5c" opacity="0.95"/></g><rect x="183" y="156" width="8" height="10" fill="#333"/><rect x="218" y="118" width="50" height="38" rx="4" fill="#0b0f18" stroke="#2c3550" stroke-width="3"/><g transform="translate(221 121) scale(0.11 0.08)"><line x1="15" y1="154.28118117153645" x2="15" y2="234.4132020920515" stroke="#22e58b" stroke-width="2" opacity="0.95"/><rect x="10" y="162.28118117153645" width="10" height="64.13202092051506" rx="2" fill="#22e58b" opacity="0.95"/><line x1="37" y1="125.3515860857442" x2="37" y2="209.12448113691062" stroke="#22e58b" stroke-width="2" opacity="0.95"/><rect x="32" y="133.3515860857442" width="10" height="67.77289505116642" rx="2" fill="#22e58b" opacity="0.95"/><line x1="59" y1="97.32444629631937" x2="59" y2="182.11732109077275" stroke="#22e58b" stroke-width="2" opacity="0.95"/><rect x="54" y="105.32444629631937" width="10" height="68.79287479445338" rx="2" fill="#22e58b" opacity="0.95"/><line x1="81" y1="128.07176825683564" x2="81" y2="180.5629226239398" stroke="#ff3b5c" stroke-width="2" opacity="0.95"/><rect x="76" y="136.07176825683564" width="10" height="36.49115436710417" rx="2" fill="#ff3b5c" opacity="0.95"/><line x1="103" y1="144.45572056248784" x2="103" y2="179.0719693414867" stroke="#ff3b5c" stroke-width="2" opacity="0.95"/><rect x="98" y="152.45572056248784" width="10" height="18.61624877899885" rx="2" fill="#ff3b5c" opacity="0.95"/><line x1="125" y1="134.1841582963243" x2="125" y2="171.93936569150537" stroke="#22e58b" stroke-width="2" opacity="0.95"/><rect x="120" y="142.1841582963243" width="10" height="21.75520739518106" rx="2" fill="#22e58b" opacity="0.95"/><line x1="147" y1="138.674910152331" x2="147" y2="218.54342856816947" stroke="#ff3b5c" stroke-width="2" opacity="0.95"/><rect x="142" y="146.674910152331" width="10" height="63.86851841583848" rx="2" fill="#ff3b5c" opacity="0.95"/><line x1="169" y1="167.13324151095003" x2="169" y2="217.8925200039521" stroke="#ff3b5c" stroke-width="2" opacity="0.95"/><rect x="164" y="175.13324151095003" width="10" height="34.75927849300206" rx="2" fill="#ff3b5c" opacity="0.95"/><line x1="191" y1="181.98831371217966" x2="191" y2="223.23398416489363" stroke="#ff3b5c" stroke-width="2" opacity="0.95"/><rect x="186" y="189.98831371217966" width="10" height="25.245670452713966" rx="2" fill="#ff3b5c" opacity="0.95"/><line x1="213" y1="151.85663918126374" x2="213" y2="215.36165002267808" stroke="#22e58b" stroke-width="2" opacity="0.95"/><rect x="208" y="159.85663918126374" width="10" height="47.50501084141433" rx="2" fill="#22e58b" opacity="0.95"/><line x1="235" y1="143.00610661320388" x2="235" y2="195.23170437850058" stroke="#22e58b" stroke-width="2" opacity="0.95"/><rect x="230" y="151.00610661320388" width="10" height="36.2255977652967" rx="2" fill="#22e58b" opacity="0.95"/><line x1="257" y1="114.68852807860821" x2="257" y2="182.27783631999046" stroke="#22e58b" stroke-width="2" opacity="0.95"/><rect x="252" y="122.68852807860821" width="10" height="51.58930824138224" rx="2" fill="#22e58b" opacity="0.95"/><line x1="279" y1="95.96615547314286" x2="279" y2="161.4295185022056" stroke="#22e58b" stroke-width="2" opacity="0.95"/><rect x="274" y="103.96615547314286" width="10" height="49.46336302906275" rx="2" fill="#22e58b" opacity="0.95"/><line x1="301" y1="118.672447421588" x2="301" y2="154.92634308245033" stroke="#ff3b5c" stroke-width="2" opacity="0.95"/><rect x="296" y="126.672447421588" width="10" height="20.253895660862327" rx="2" fill="#ff3b5c" opacity="0.95"/><line x1="323" y1="97.82415722496808" x2="323" y2="148.24108836613595" stroke="#22e58b" stroke-width="2" opacity="0.95"/><rect x="318" y="105.82415722496808" width="10" height="34.41693114116788" rx="2" fill="#22e58b" opacity="0.95"/><line x1="345" y1="71.48693411704153" x2="345" y2="135.87103264871985" stroke="#22e58b" stroke-width="2" opacity="0.95"/><rect x="340" y="79.48693411704153" width="10" height="48.38409853167832" rx="2" fill="#22e58b" opacity="0.95"/><line x1="367" y1="88.83989634364843" x2="367" y2="173.23076673597097" stroke="#ff3b5c" stroke-width="2" opacity="0.95"/><rect x="362" y="96.83989634364843" width="10" height="68.39087039232254" rx="2" fill="#ff3b5c" opacity="0.95"/><line x1="389" y1="68.90542482305318" x2="389" y2="145.04976561944932" stroke="#22e58b" stroke-width="2" opacity="0.95"/><rect x="384" y="76.90542482305318" width="10" height="60.144340796396136" rx="2" fill="#22e58b" opacity="0.95"/></g><rect x="239" y="156" width="8" height="10" fill="#333"/><rect x="274" y="118" width="50" height="38" rx="4" fill="#0b0f18" stroke="#2c3550" stroke-width="3"/><g transform="translate(277 121) scale(0.11 0.08)"><line x1="15" y1="149.38317785272375" x2="15" y2="234.9574246830307" stroke="#22e58b" stroke-width="2" opacity="0.95"/><rect x="10" y="157.38317785272375" width="10" height="69.57424683030695" rx="2" fill="#22e58b" opacity="0.95"/><line x1="37" y1="121.1758119626902" x2="37" y2="207.16968896845356" stroke="#22e58b" stroke-width="2" opacity="0.95"/><rect x="32" y="129.1758119626902" width="10" height="69.99387700576335" rx="2" fill="#22e58b" opacity="0.95"/><line x1="59" y1="107.88277632789686" x2="59" y2="177.53830314753577" stroke="#22e58b" stroke-width="2" opacity="0.95"/><rect x="54" y="115.88277632789686" width="10" height="53.65552681963891" rx="2" fill="#22e58b" opacity="0.95"/><line x1="81" y1="106.39624087093398" x2="81" y2="153.85657294513658" stroke="#22e58b" stroke-width="2" opacity="0.95"/><rect x="76" y="114.39624087093398" width="10" height="31.460332074202597" rx="2" fill="#22e58b" opacity="0.95"/><line x1="103" y1="102.2695643552579" x2="103" y2="140.33272274723276" stroke="#22e58b" stroke-width="2" opacity="0.95"/><rect x="98" y="110.2695643552579" width="10" height="22.063158391974866" rx="2" fill="#22e58b" opacity="0.95"/><line x1="125" y1="56.74159972881898" x2="125" y2="135.5855373092927" stroke="#22e58b" stroke-width="2" opacity="0.95"/><rect x="120" y="64.74159972881898" width="10" height="62.84393758047372" rx="2" fill="#22e58b" opacity="0.95"/><line x1="147" y1="82.06581094162539" x2="147" y2="159.04338671592996" stroke="#ff3b5c" stroke-width="2" opacity="0.95"/><rect x="142" y="90.06581094162539" width="10" height="60.97757577430457" rx="2" fill="#ff3b5c" opacity="0.95"/><line x1="169" y1="56.10210607526824" x2="169" y2="134.82709802361205" stroke="#22e58b" stroke-width="2" opacity="0.95"/><rect x="164" y="64.10210607526824" width="10" height="62.72499194834381" rx="2" fill="#22e58b" opacity="0.95"/><line x1="191" y1="63.92268181825057" x2="191" y2="106.08037096401677" stroke="#22e58b" stroke-width="2" opacity="0.95"/><rect x="186" y="71.92268181825057" width="10" height="26.1576891457662" rx="2" fill="#22e58b" opacity="0.95"/><line x1="213" y1="72.93034093966708" x2="213" y2="129.64219545433298" stroke="#ff3b5c" stroke-width="2" opacity="0.95"/><rect x="208" y="80.93034093966708" width="10" height="40.7118545146659" rx="2" fill="#ff3b5c" opacity="0.95"/><line x1="235" y1="86.28673539729789" x2="235" y2="172.28206339431927" stroke="#ff3b5c" stroke-width="2" opacity="0.95"/><rect x="230" y="94.28673539729789" width="10" height="69.99532799702138" rx="2" fill="#ff3b5c" opacity="0.95"/><line x1="257" y1="70.98171345843002" x2="257" y2="142.87358672218397" stroke="#22e58b" stroke-width="2" opacity="0.95"/><rect x="252" y="78.98171345843002" width="10" height="55.89187326375395" rx="2" fill="#22e58b" opacity="0.95"/><line x1="279" y1="84.55282467463985" x2="279" y2="116.52485291427001" stroke="#22e58b" stroke-width="2" opacity="0.95"/><rect x="274" y="92.55282467463985" width="10" height="15.972028239630163" rx="2" fill="#22e58b" opacity="0.95"/><line x1="301" y1="32.888273113872856" x2="301" y2="115.16667942563072" stroke="#22e58b" stroke-width="2" opacity="0.95"/><rect x="296" y="40.888273113872856" width="10" height="66.27840631175786" rx="2" fill="#22e58b" opacity="0.95"/><line x1="323" y1="55.71737951086834" x2="323" y2="83.17304257629439" stroke="#22e58b" stroke-width="2" opacity="0.95"/><rect x="318" y="63.71737951086834" width="10" height="11.455663065426052" rx="2" fill="#22e58b" opacity="0.95"/><line x1="345" y1="9.522917616646737" x2="345" y2="83.21435475768521" stroke="#22e58b" stroke-width="2" opacity="0.95"/><rect x="340" y="17.522917616646737" width="10" height="57.69143714103848" rx="2" fill="#22e58b" opacity="0.95"/><line x1="367" y1="33.89119443157688" x2="367" y2="94.66561198746786" stroke="#ff3b5c" stroke-width="2" opacity="0.95"/><rect x="362" y="41.89119443157688" width="10" height="44.77441755589098" rx="2" fill="#ff3b5c" opacity="0.95"/><line x1="389" y1="50.72747485106811" x2="389" y2="122.23675843561068" stroke="#ff3b5c" stroke-width="2" opacity="0.95"/><rect x="384" y="58.72747485106811" width="10" height="55.50928358454257" rx="2" fill="#ff3b5c" opacity="0.95"/></g><rect x="295" y="156" width="8" height="10" fill="#333"/><rect x="290" y="120" width="22" height="50" rx="3" fill="#15182a" stroke="url(#rgb)" stroke-width="2"/><rect x="164" y="164" width="52" height="6" rx="2" fill="#2a2e3a"/><path d="M172 236h36M190 236v-24" stroke="#222" stroke-width="5"/><rect x="170" y="186" width="40" height="28" rx="8" fill="#e63946"/></svg>