<svg xmlns="http://www.w3.org/2000/svg" viewBox="0 0 400 260">
<defs><linearGradient id="w" x1="0" y1="0" x2="0" y2="1"><stop offset="0" stop-color="#0c0b1c"/><stop offset="1" stop-color="#0a0a12"/></linearGradient>
<linearGradient id="rgb" x1="0" x2="1"><stop offset="0" stop-color="#ff3d81"/><stop offset=".5" stop-color="#3fa7ff"/><stop offset="1" stop-color="#22e58b"/></linearGradient></defs>
<rect width="400" height="200" fill="url(#w)"/><rect y="200" width="400" height="60" fill="#1a1424"/><rect x="290" y="30" width="80" height="70" rx="4" fill="#0e1a33" stroke="#3a3f55" stroke-width="4"/><g transform="translate(290 30) scale(.2 .175)"><circle cx="95.5" cy="237.5" r="1.50" fill="#fff" opacity="0.85"/><circle cx="19.7" cy="222.5" r="1.05" fill="#fff" opacity="0.24"/><circle cx="27.5" cy="255.8" r="2.15" fill="#fff" opacity="0.57"/><circle cx="180.7" cy="142.4" r="1.49" fill="#fff" opacity="0.74"/><circle cx="311.9" cy="108.7" r="1.25" fill="#fff" opacity="0.80"/><circle cx="145.0" cy="125.2" r="0.57" fill="#fff" opacity="0.72"/><circle cx="333.7" cy="93.1" r="0.72" fill="#fff" opacity="0.89"/><circle cx="48.8" cy="118.2" r="1.22" fill="#fff" opacity="0.28"/><circle cx="45.6" cy="161.6" r="1.79" fill="#fff" opacity="0.26"/><circle cx="242.2" cy="240.9" r="0.88" fill="#fff" opacity="0.61"/><circle cx="141.1" cy="81.3" r="1.32" fill="#fff" opacity="0.70"/><circle cx="123.9" cy="41.1" r="1.97" fill="#fff" opacity="0.64"/><circle cx="151.7" cy="259.1" r="1.27" fill="#fff" opacity="0.32"/><circle cx="101.5" cy="239.4" r="1.46" fill="#fff" opacity="0.54"/><circle cx="70.0" cy="112.8" r="0.72" fill="#fff" opacity="0.20"/><circle cx="276.7" cy="197.6" r="0.66" fill="#fff" opacity="0.58"/><circle cx="296.8" cy="229.5" r="1.07" fill="#fff" opacity="0.48"/><circle cx="255.3" cy="215.4" r="1.31" fill="#fff" opacity="0.54"/><circle cx="314.3" cy="248.9" r="0.98" fill="#fff" opacity="0.82"/><circle cx="82.9" cy="72.1" r="2.11" fill="#fff" opacity="0.70"/><circle cx="83.5" cy="13.6" r="0.93" fill="#fff" opacity="0.78"/><circle cx="304.0" cy="54.8" r="1.32" fill="#fff" opacity="0.73"/><circle cx="166.9" cy="85.8" r="1.03" fill="#fff" opacity="0.34"/><circle cx="348.3" cy="53.2" r="1.62" fill="#fff" opacity="0.69"/><circle cx="176.1" cy="69.8" r="1.34" fill="#fff" opacity="0.44"/><circle cx="40.2" cy="100.3" r="1.24" fill="#fff" opacity="0.73"/><circle cx="344.6" cy="201.2" r="0.82" fill="#fff" opacity="0.68"/><circle cx="234.0" cy="19.8" r="1.74" fill="#fff" opacity="0.78"/><circle cx="225.1" cy="221.6" r="0.50" fill="#fff" opacity="0.72"/><circle cx="174.3" cy="258.7" r="2.04" fill="#fff" opacity="0.34"/><circle cx="112.8" cy="220.4" r="1.86" fill="#fff" opacity="0.89"/><circle cx="380.9" cy="7.6" r="1.99" fill="#fff" opacity="0.37"/><circle cx="392.2" cy="62.6" r="2.06" fill="#fff" opacity="0.78"/><circle cx="259.1" cy="146.2" r="1.07" fill="#fff" opacity="0.33"/><circle cx="10.8" cy="2.5" r="0.64" fill="#fff" opacity="0.74"/><circle cx="35.0" cy="95.3" r="1.28" fill="#fff" opacity="0.89"/><circle cx="75.6" cy="144.0" r="1.31" fill="#fff" opacity="0.49"/><circle cx="215.3" cy="15.2" r="1.62" fill="#fff" opacity="0.36"/><circle cx="176.8" cy="46.8" r="1.75" fill="#fff" opacity="0.72"/><circle cx="172.6" cy="30.4" r="2.04" fill="#fff" opacity="0.26"/></g><path d="M330 30v70M290 65h80" stroke="#3a3f55" stroke-width="3"/><rect x="30" y="34" width="44" height="58" rx="3" fill="#ffd23f"/><g transform="translate(32 40) scale(.4)"><ellipse cx="50" cy="62" rx="32" ry="24" fill="#5fbf4a"/><circle cx="34" cy="40" r="13" fill="#5fbf4a"/><circle cx="66" cy="40" r="13" fill="#5fbf4a"/><ellipse cx="50" cy="70" rx="22" ry="10" fill="#82e26d" opacity=".5"/><circle cx="34" cy="40" r="8" fill="#fff"/><circle cx="66" cy="40" r="8" fill="#fff"/><circle cx="35.5" cy="41.5" r="3.6" fill="#111"/><circle cx="67.5" cy="41.5" r="3.6" fill="#111"/><path d="M25 39h18M57 39h18" stroke="#1a1a1a" stroke-width="3"/><path d="M28 64q22 12 44 0" fill="none" stroke="#3c9c27" stroke-width="4" stroke-linecap="round"/></g><rect x="86" y="30" width="40" height="40" rx="3" fill="#3fa7ff"/><text x="106" y="57" text-anchor="middle" font-size="22" font-weight="800" fill="#fff" font-family="sans-serif">₿</text><rect x="200" y="30" width="70" height="30" rx="4" fill="#22e58b" opacity=".85"/><text x="235" y="51" text-anchor="middle" font-size="14" font-weight="800" fill="#062" font-family="sans-serif">HODL</text><rect x="0" y="196" width="400" height="5" fill="url(#rgb)" opacity="0.9600000000000001"/><rect x="330" y="110" width="30" height="92" rx="3" fill="#15182a" stroke="#2c3550" stroke-width="2"/><rect x="334" y="116" width="22" height="8" rx="1" fill="#0b0f18"/><circle cx="352" cy="120" r="1.6" fill="#3fa7ff"/><rect x="334" y="130" width="22" height="8" rx="1" fill="#0b0f18"/><circle cx="352" cy="134" r="1.6" fill="#22e58b"/><rect x="334" y="144" width="22" height="8" rx="1" fill="#0b0f18"/><circle cx="352" cy="148" r="1.6" fill="#3fa7ff"/><rect x="334" y="158" width="22" height="8" rx="1" fill="#0b0f18"/><circle cx="352" cy="162" r="1.6" fill="#22e58b"/><rect x="334" y="172" width="22" height="8" rx="1" fill="#0b0f18"/><circle cx="352" cy="176" r="1.6" fill="#3fa7ff"/><rect x="334" y="186" width="22" height="8" rx="1" fill="#0b0f18"/><circle cx="352" cy="190" r="1.6" fill="#22e58b"/><rect x="296" y="110" width="30" height="92" rx="3" fill="#15182a" stroke="#2c3550" stroke-width="2"/><rect x="300" y="116" width="22" height="8" rx="1" fill="#0b0f18"/><circle cx="318" cy="120" r="1.6" fill="#3fa7ff"/><rect x="300" y="130" width="22" height="8" rx="1" fill="#0b0f18"/><circle cx="318" cy="134" r="1.6" fill="#22e58b"/><rect x="300" y="144" width="22" height="8" rx="1" fill="#0b0f18"/><circle cx="318" cy="148" r="1.6" fill="#3fa7ff"/><rect x="300" y="158" width="22" height="8" rx="1" fill="#0b0f18"/><circle cx="318" cy="162" r="1.6" fill="#22e58b"/><rect x="300" y="172" width="22" height="8" rx="1" fill="#0b0f18"/><circle cx="318" cy="176" r="1.6" fill="#3fa7ff"/><rect x="300" y="186" width="22" height="8" rx="1" fill="#0b0f18"/><circle cx="318" cy="190" r="1.6" fill="#22e58b"/><rect x="262" y="110" width="30" height="92" rx="3" fill="#15182a" stroke="#2c3550" stroke-width="2"/><rect x="266" y="116" width="22" height="8" rx="1" fill="#0b0f18"/><circle cx="284" cy="120" r="1.6" fill="#3fa7ff"/><rect x="266" y="130" width="22" height="8" rx="1" fill="#0b0f18"/><circle cx="284" cy="134" r="1.6" fill="#22e58b"/><rect x="266" y="144" width="22" height="8" rx="1" fill="#0b0f18"/><circle cx="284" cy="148" r="1.6" fill="#3fa7ff"/><rect x="266" y="158" width="22" height="8" rx="1" fill="#0b0f18"/><circle cx="284" cy="162" r="1.6" fill="#22e58b"/><rect x="266" y="172" width="22" height="8" rx="1" fill="#0b0f18"/><circle cx="284" cy="176" r="1.6" fill="#3fa7ff"/><rect x="266" y="186" width="22" height="8" rx="1" fill="#0b0f18"/><circle cx="284" cy="190" r="1.6" fill="#22e58b"/><rect x="50" y="170" width="280" height="12" rx="3" fill="#2b2f40"/><rect x="58" y="182" width="8" height="40" fill="#3a2a1e"/><rect x="314" y="182" width="8" height="40" fill="#3a2a1e"/><rect x="106" y="118" width="50" height="38" rx="4" fill="#0b0f18" stroke="#2c3550" stroke-width="3"/><g transform="translate(109 121) scale(0.11 0.08)"><line x1="15" y1="169.09715462103486" x2="15" y2="232.76698281988502" stroke="#22e58b" stroke-width="2" opacity="0.95"/><rect x="10" y="177.09715462103486" width="10" height="47.669828198850155" rx="2" fill="#22e58b" opacity="0.95"/><line x1="37" y1="169.94539310131222" x2="37" y2="211.48614378925413" stroke="#22e58b" stroke-width="2" opacity="0.95"/><rect x="32" y="177.94539310131222" width="10" height="25.54075068794191" rx="2" fill="#22e58b" opacity="0.95"/><line x1="59" y1="175.94635934568942" x2="59" y2="259.640450341627" stroke="#ff3b5c" stroke-width="2" opacity="0.95"/><rect x="54" y="183.94635934568942" width="10" height="67.69409099593759" rx="2" fill="#ff3b5c" opacity="0.95"/><line x1="81" y1="159.1732864221558" x2="81" y2="231.41786244604737" stroke="#22e58b" stroke-width="2" opacity="0.95"/><rect x="76" y="167.1732864221558" width="10" height="56.24457602389157" rx="2" fill="#22e58b" opacity="0.95"/><line x1="103" y1="182.67642186582088" x2="103" y2="244.86794754862785" stroke="#ff3b5c" stroke-width="2" opacity="0.95"/><rect x="98" y="190.67642186582088" width="10" height="46.19152568280697" rx="2" fill="#ff3b5c" opacity="0.95"/><line x1="125" y1="160.35364071745425" x2="125" y2="226.8186895949766" stroke="#22e58b" stroke-width="2" opacity="0.95"/><rect x="120" y="168.35364071745425" width="10" height="50.46504887752235" rx="2" fill="#22e58b" opacity="0.95"/><line x1="147" y1="148.91928560100496" x2="147" y2="205.66026288457215" stroke="#22e58b" stroke-width="2" opacity="0.95"/><rect x="142" y="156.91928560100496" width="10" height="40.74097728356719" rx="2" fill="#22e58b" opacity="0.95"/><line x1="169" y1="152.65328672062606" x2="169" y2="187.13827285636216" stroke="#22e58b" stroke-width="2" opacity="0.95"/><rect x="164" y="160.65328672062606" width="10" height="18.484986135736108" rx="2" fill="#22e58b" opacity="0.95"/><line x1="191" y1="132.60814179107547" x2="191" y2="181.1499617882073" stroke="#22e58b" stroke-width="2" opacity="0.95"/><rect x="186" y="140.60814179107547" width="10" height="32.541819997131824" rx="2" fill="#22e58b" opacity="0.95"/><line x1="213" y1="101.03526758495718" x2="213" y2="170.19502781238407" stroke="#22e58b" stroke-width="2" opacity="0.95"/><rect x="208" y="109.03526758495718" width="10" height="53.15976022742689" rx="2" fill="#22e58b" opacity="0.95"/><line x1="235" y1="67.8700520414859" x2="235" y2="150.25349166058004" stroke="#22e58b" stroke-width="2" opacity="0.95"/><rect x="230" y="75.8700520414859" width="10" height="66.38343961909413" rx="2" fill="#22e58b" opacity="0.95"/><line x1="257" y1="77.65292627271265" x2="257" y2="119.66275469306856" stroke="#22e58b" stroke-width="2" opacity="0.95"/><rect x="252" y="85.65292627271265" width="10" height="26.009828420355916" rx="2" fill="#22e58b" opacity="0.95"/><line x1="279" y1="88.5045720115304" x2="279" y2="126.03725672513247" stroke="#ff3b5c" stroke-width="2" opacity="0.95"/><rect x="274" y="96.5045720115304" width="10" height="21.532684713602066" rx="2" fill="#ff3b5c" opacity="0.95"/><line x1="301" y1="73.66593158710748" x2="301" y2="118.1159124551341" stroke="#22e58b" stroke-width="2" opacity="0.95"/><rect x="296" y="81.66593158710748" width="10" height="28.449980868026614" rx="2" fill="#22e58b" opacity="0.95"/><line x1="323" y1="84.81824336759746" x2="323" y2="131.54502990283072" stroke="#ff3b5c" stroke-width="2" opacity="0.95"/><rect x="318" y="92.81824336759746" width="10" height="30.72678653523326" rx="2" fill="#ff3b5c" opacity="0.95"/><line x1="345" y1="43.62310996931046" x2="345" y2="122.46591737587005" stroke="#22e58b" stroke-width="2" opacity="0.95"/><rect x="340" y="51.62310996931046" width="10" height="62.84280740655959" rx="2" fill="#22e58b" opacity="0.95"/><line x1="367" y1="21.531190741807222" x2="367" y2="96.99043844267726" stroke="#22e58b" stroke-width="2" opacity="0.95"/><rect x="362" y="29.531190741807222" width="10" height="59.45924770087004" rx="2" fill="#22e58b" opacity="0.95"/><line x1="389" y1="30.503319800831378" x2="389" y2="69.567202902399" stroke="#22e58b" stroke-width="2" opacity="0.95"/><rect x="384" y="38.50331980083138" width="10" height="23.063883101567626" rx="2" fill="#22e58b" opacity="0.95"/></g><rect x="127" y="156" width="8" height="10" fill="#333"/><rect x="162" y="118" width="50" height="38" rx="4" fill="#0b0f18" stroke="#2c3550" stroke-width="3"/><g transform="translate(165 121) scale(0.11 0.08)"><line x1="15" y1="206.6887945891358" x2="15" y2="275.80084869777784" stroke="#ff3b5c" stroke-width="2" opacity="0.95"/><rect x="10" y="214.6887945891358" width="10" height="53.11205410864204" rx="2" fill="#ff3b5c" opacity="0.95"/><line x1="37" y1="230.46864837920293" x2="37" y2="274.2303810217418" stroke="#ff3b5c" stroke-width="2" opacity="0.95"/><rect x="32" y="238.46864837920293" width="10" height="27.761732642538846" rx="2" fill="#ff3b5c" opacity="0.95"/><line x1="59" y1="239.09384039836004" x2="59" y2="307.65058341948316" stroke="#ff3b5c" stroke-width="2" opacity="0.95"/><rect x="54" y="247.09384039836004" width="10" height="52.55674302112311" rx="2" fill="#ff3b5c" opacity="0.95"/><line x1="81" y1="219.2798335510306" x2="81" y2="286.4935872820206" stroke="#22e58b" stroke-width="2" opacity="0.95"/><rect x="76" y="227.2798335510306" width="10" height="51.21375373098999" rx="2" fill="#22e58b" opacity="0.95"/><line x1="103" y1="239.9228668869473" x2="103" y2="305.5613021827303" stroke="#ff3b5c" stroke-width="2" opacity="0.95"/><rect x="98" y="247.9228668869473" width="10" height="49.63843529578298" rx="2" fill="#ff3b5c" opacity="0.95"/><line x1="125" y1="261.5867066285573" x2="125" y2="309.1404856913723" stroke="#ff3b5c" stroke-width="2" opacity="0.95"/><rect x="120" y="269.5867066285573" width="10" height="31.55377906281501" rx="2" fill="#ff3b5c" opacity="0.95"/><line x1="147" y1="243.29856498213485" x2="147" y2="297.1485996241681" stroke="#22e58b" stroke-width="2" opacity="0.95"/><rect x="142" y="251.29856498213485" width="10" height="37.85003464203328" rx="2" fill="#22e58b" opacity="0.95"/><line x1="169" y1="257.5785123440437" x2="169" y2="320.02921193512157" stroke="#ff3b5c" stroke-width="2" opacity="0.95"/><rect x="164" y="265.5785123440437" width="10" height="46.450699591077864" rx="2" fill="#ff3b5c" opacity="0.95"/><line x1="191" y1="277.4584782705642" x2="191" y2="326.9123169607483" stroke="#ff3b5c" stroke-width="2" opacity="0.95"/><rect x="186" y="285.4584782705642" width="10" height="33.45383869018406" rx="2" fill="#ff3b5c" opacity="0.95"/><line x1="213" y1="289.5487372255884" x2="213" y2="351.91534112626687" stroke="#ff3b5c" stroke-width="2" opacity="0.95"/><rect x="208" y="297.5487372255884" width="10" height="46.366603900678456" rx="2" fill="#ff3b5c" opacity="0.95"/><line x1="235" y1="308.71672219084576" x2="235" y2="364.86989204166457" stroke="#ff3b5c" stroke-width="2" opacity="0.95"/><rect x="230" y="316.71672219084576" width="10" height="40.15316985081881" rx="2" fill="#ff3b5c" opacity="0.95"/><line x1="257" y1="301.5121530178003" x2="257" y2="347.8245464605279" stroke="#22e58b" stroke-width="2" opacity="0.95"/><rect x="252" y="309.5121530178003" width="10" height="30.312393442727625" rx="2" fill="#22e58b" opacity="0.95"/><line x1="279" y1="311.86421474674717" x2="279" y2="375.90556467091665" stroke="#ff3b5c" stroke-width="2" opacity="0.95"/><rect x="274" y="319.86421474674717" width="10" height="48.04134992416948" rx="2" fill="#ff3b5c" opacity="0.95"/><line x1="301" y1="334.4374405569397" x2="301" y2="364.91193207586184" stroke="#ff3b5c" stroke-width="2" opacity="0.95"/><rect x="296" y="342.4374405569397" width="10" height="14.47449151892215" rx="2" fill="#ff3b5c" opacity="0.95"/><line x1="323" y1="280.6857197028585" x2="323" y2="364.4512381623499" stroke="#22e58b" stroke-width="2" opacity="0.95"/><rect x="318" y="288.6857197028585" width="10" height="67.76551845949143" rx="2" fill="#22e58b" opacity="0.95"/><line x1="345" y1="313.3534643310122" x2="345" y2="341.50361034693196" stroke="#ff3b5c" stroke-width="2" opacity="0.95"/><rect x="340" y="321.3534643310122" width="10" height="12.150146015919745" rx="2" fill="#ff3b5c" opacity="0.95"/><line x1="367" y1="287.17002196097746" x2="367" y2="339.01281682541594" stroke="#22e58b" stroke-width="2" opacity="0.95"/><rect x="362" y="295.17002196097746" width="10" height="35.842794864438474" rx="2" fill="#22e58b" opacity="0.95"/><line x1="389" y1="303.2485368042253" x2="389" y2="337.67736269393936" stroke="#ff3b5c" stroke-width="2" opacity="0.95"/><rect x="384" y="311.2485368042253" width="10" height="18.428825889714062" rx="2" fill="#ff3b5c" opacity="0.95"/></g><rect x="183" y="156" width="8" height="10" fill="#333"/><rect x="218" y="118" width="50" height="38" rx="4" fill="#0b0f18" stroke="#2c3550" stroke-width="3"/><g transform="translate(221 121) scale(0.11 0.08)"><line x1="15" y1="159.30114798340946" x2="15" y2="233.8554280018434" stroke="#22e58b" stroke-width="2" opacity="0.95"/><rect x="10" y="167.30114798340946" width="10" height="58.55428001843393" rx="2" fill="#22e58b" opacity="0.95"/><line x1="37" y1="185.58001653291285" x2="37" y2="231.56273113004863" stroke="#ff3b5c" stroke-width="2" opacity="0.95"/><rect x="32" y="193.58001653291285" width="10" height="29.982714597135782" rx="2" fill="#ff3b5c" opacity="0.95"/><line x1="59" y1="166.89391828980297" x2="59" y2="220.3133133361116" stroke="#22e58b" stroke-width="2" opacity="0.95"/><rect x="54" y="174.89391828980297" width="10" height="37.41939504630864" rx="2" fill="#22e58b" opacity="0.95"/><line x1="81" y1="144.0389775186777" x2="81" y2="206.22190895676613" stroke="#22e58b" stroke-width="2" opacity="0.95"/><rect x="76" y="152.0389775186777" width="10" height="46.18293143808842" rx="2" fill="#22e58b" opacity="0.95"/><line x1="103" y1="161.82190874684602" x2="103" y2="230.90725365560502" stroke="#ff3b5c" stroke-width="2" opacity="0.95"/><rect x="98" y="169.82190874684602" width="10" height="53.085344908759" rx="2" fill="#ff3b5c" opacity="0.95"/><line x1="125" y1="176.98632287792861" x2="125" y2="205.6288321260363" stroke="#22e58b" stroke-width="2" opacity="0.95"/><rect x="120" y="184.98632287792861" width="10" height="12.642509248107672" rx="2" fill="#22e58b" opacity="0.95"/><line x1="147" y1="151.84439470153302" x2="147" y2="202.8034867020324" stroke="#22e58b" stroke-width="2" opacity="0.95"/><rect x="142" y="159.84439470153302" width="10" height="34.95909200049937" rx="2" fill="#22e58b" opacity="0.95"/><line x1="169" y1="156.34916896000504" x2="169" y2="186.76558200642467" stroke="#22e58b" stroke-width="2" opacity="0.95"/><rect x="164" y="164.34916896000504" width="10" height="14.41641304641962" rx="2" fill="#22e58b" opacity="0.95"/><line x1="191" y1="132.6281038383022" x2="191" y2="182.99396122153848" stroke="#22e58b" stroke-width="2" opacity="0.95"/><rect x="186" y="140.6281038383022" width="10" height="34.36585738323629" rx="2" fill="#22e58b" opacity="0.95"/><line x1="213" y1="114.19492971338332" x2="213" y2="169.76837728731334" stroke="#22e58b" stroke-width="2" opacity="0.95"/><rect x="208" y="122.19492971338332" width="10" height="39.573447573930025" rx="2" fill="#22e58b" opacity="0.95"/><line x1="235" y1="121.45104342605919" x2="235" y2="151.37394350860268" stroke="#22e58b" stroke-width="2" opacity="0.95"/><rect x="230" y="129.4510434260592" width="10" height="13.922900082543492" rx="2" fill="#22e58b" opacity="0.95"/><line x1="257" y1="97.25903084874153" x2="257" y2="147.87398931384087" stroke="#22e58b" stroke-width="2" opacity="0.95"/><rect x="252" y="105.25903084874153" width="10" height="34.614958465099335" rx="2" fill="#22e58b" opacity="0.95"/><line x1="279" y1="101.47149646002799" x2="279" y2="132.0215115947649" stroke="#22e58b" stroke-width="2" opacity="0.95"/><rect x="274" y="109.47149646002799" width="10" height="14.550015134736896" rx="2" fill="#22e58b" opacity="0.95"/><line x1="301" y1="102.69660381041467" x2="301" y2="179.19560598023236" stroke="#ff3b5c" stroke-width="2" opacity="0.95"/><rect x="296" y="110.69660381041467" width="10" height="60.499002169817686" rx="2" fill="#ff3b5c" opacity="0.95"/><line x1="323" y1="92.62227954994887" x2="323" y2="153.42652993369848" stroke="#22e58b" stroke-width="2" opacity="0.95"/><rect x="318" y="100.62227954994887" width="10" height="44.804250383749604" rx="2" fill="#22e58b" opacity="0.95"/><line x1="345" y1="95.71266857907176" x2="345" y2="133.17015320435166" stroke="#22e58b" stroke-width="2" opacity="0.95"/><rect x="340" y="103.71266857907176" width="10" height="21.457484625279903" rx="2" fill="#22e58b" opacity="0.95"/><line x1="367" y1="95.43770306650549" x2="367" y2="123.6640450945124" stroke="#22e58b" stroke-width="2" opacity="0.95"/><rect x="362" y="103.43770306650549" width="10" height="12.226342028006911" rx="2" fill="#22e58b" opacity="0.95"/><line x1="389" y1="89.1364822704345" x2="389" y2="118.930250948295" stroke="#22e58b" stroke-width="2" opacity="0.95"/><rect x="384" y="97.1364822704345" width="10" height="13.793768677860498" rx="2" fill="#22e58b" opacity="0.95"/></g><rect x="239" y="156" width="8" height="10" fill="#333"/><rect x="106" y="72" width="50" height="38" rx="4" fill="#0b0f18" stroke="#2c3550" stroke-width="3"/><g transform="translate(109 75) scale(0.11 0.08)"><line x1="15" y1="154.40314466459677" x2="15" y2="234.39965059282258" stroke="#22e58b" stroke-width="2" opacity="0.95"/><rect x="10" y="162.40314466459677" width="10" height="63.996505928225815" rx="2" fill="#22e58b" opacity="0.95"/><line x1="37" y1="157.41807073215023" x2="37" y2="205.62176728388295" stroke="#22e58b" stroke-width="2" opacity="0.95"/><rect x="32" y="165.41807073215023" width="10" height="32.20369655173272" rx="2" fill="#22e58b" opacity="0.95"/><line x1="59" y1="171.29171430086717" x2="59" y2="209.57376137236133" stroke="#ff3b5c" stroke-width="2" opacity="0.95"/><rect x="54" y="179.29171430086717" width="10" height="22.282047071494162" rx="2" fill="#ff3b5c" opacity="0.95"/><line x1="81" y1="145.3958396059461" x2="81" y2="202.54794875113294" stroke="#22e58b" stroke-width="2" opacity="0.95"/><rect x="76" y="153.3958396059461" width="10" height="41.15210914518684" rx="2" fill="#22e58b" opacity="0.95"/><line x1="103" y1="115.092865108978" x2="103" y2="187.62511963071302" stroke="#22e58b" stroke-width="2" opacity="0.95"/><rect x="98" y="123.092865108978" width="10" height="56.53225452173501" rx="2" fill="#22e58b" opacity="0.95"/><line x1="125" y1="95.00087687978521" x2="125" y2="164.73211631318554" stroke="#22e58b" stroke-width="2" opacity="0.95"/><rect x="120" y="103.00087687978521" width="10" height="53.73123943340033" rx="2" fill="#22e58b" opacity="0.95"/><line x1="147" y1="93.00516217341647" x2="147" y2="141.07331153238192" stroke="#22e58b" stroke-width="2" opacity="0.95"/><rect x="142" y="101.00516217341647" width="10" height="32.06814935896546" rx="2" fill="#22e58b" opacity="0.95"/><line x1="169" y1="70.89532300131395" x2="169" y2="129.27744950307533" stroke="#22e58b" stroke-width="2" opacity="0.95"/><rect x="164" y="78.89532300131395" width="10" height="42.38212650176138" rx="2" fill="#22e58b" opacity="0.95"/><line x1="191" y1="60.336297783534974" x2="191" y2="111.6141738598235" stroke="#22e58b" stroke-width="2" opacity="0.95"/><rect x="186" y="68.33629778353497" width="10" height="35.27787607628852" rx="2" fill="#22e58b" opacity="0.95"/><line x1="213" y1="74.69720669696108" x2="213" y2="123.47749794414267" stroke="#ff3b5c" stroke-width="2" opacity="0.95"/><rect x="208" y="82.69720669696108" width="10" height="32.780291247181594" rx="2" fill="#ff3b5c" opacity="0.95"/><line x1="235" y1="48.16398503771052" x2="235" y2="111.85661535197869" stroke="#22e58b" stroke-width="2" opacity="0.95"/><rect x="230" y="56.16398503771052" width="10" height="47.69263031426817" rx="2" fill="#22e58b" opacity="0.95"/><line x1="257" y1="36.984529056120664" x2="257" y2="91.90205254359171" stroke="#22e58b" stroke-width="2" opacity="0.95"/><rect x="252" y="44.984529056120664" width="10" height="38.917523487471044" rx="2" fill="#22e58b" opacity="0.95"/><line x1="279" y1="19.490478489082307" x2="279" y2="76.54915883438662" stroke="#22e58b" stroke-width="2" opacity="0.95"/><rect x="274" y="27.490478489082307" width="10" height="41.05868034530431" rx="2" fill="#22e58b" opacity="0.95"/><line x1="301" y1="8.738243589643389" x2="301" y2="71.26175641035661" stroke="#22e58b" stroke-width="2" opacity="0.95"/><rect x="296" y="16.73824358964339" width="10" height="46.52351282071322" rx="2" fill="#22e58b" opacity="0.95"/><line x1="323" y1="21.07850884599611" x2="323" y2="58.92149115400389" stroke="#22e58b" stroke-width="2" opacity="0.95"/><rect x="318" y="29.07850884599611" width="10" height="21.842982308007777" rx="2" fill="#22e58b" opacity="0.95"/><line x1="345" y1="28.923517676535994" x2="345" y2="75.68834091117606" stroke="#ff3b5c" stroke-width="2" opacity="0.95"/><rect x="340" y="36.923517676535994" width="10" height="30.764823234640062" rx="2" fill="#ff3b5c" opacity="0.95"/><line x1="367" y1="7.695055404212326" x2="367" y2="72.30494459578767" stroke="#22e58b" stroke-width="2" opacity="0.95"/><rect x="362" y="15.695055404212326" width="10" height="48.60988919157535" rx="2" fill="#22e58b" opacity="0.95"/><line x1="389" y1="-2.5793557330034673" x2="389" y2="82.57935573300347" stroke="#22e58b" stroke-width="2" opacity="0.95"/><rect x="384" y="5.420644266996533" width="10" height="69.15871146600693" rx="2" fill="#22e58b" opacity="0.95"/></g><rect x="127" y="110" width="8" height="10" fill="#333"/><rect x="162" y="72" width="50" height="38" rx="4" fill="#0b0f18" stroke="#2c3550" stroke-width="3"/><g transform="translate(165 75) scale(0.11 0.08)"><line x1="15" y1="205.05612681619823" x2="15" y2="290.49485865421593" stroke="#ff3b5c" stroke-width="2" opacity="0.95"/><rect x="10" y="213.05612681619823" width="10" height="69.4387318380177" rx="2" fill="#ff3b5c" opacity="0.95"/><line x1="37" y1="236.33302488457412" x2="37" y2="286.75770339090377" stroke="#ff3b5c" stroke-width="2" opacity="0.95"/><rect x="32" y="244.33302488457412" width="10" height="34.424678506329656" rx="2" fill="#ff3b5c" opacity="0.95"/><line x1="59" y1="246.83089422807097" x2="59" y2="329.97559332475066" stroke="#ff3b5c" stroke-width="2" opacity="0.95"/><rect x="54" y="254.83089422807097" width="10" height="67.14469909667969" rx="2" fill="#ff3b5c" opacity="0.95"/><line x1="81" y1="276.7911150911823" x2="81" y2="328.91240194346756" stroke="#ff3b5c" stroke-width="2" opacity="0.95"/><rect x="76" y="284.7911150911823" width="10" height="36.121286852285266" rx="2" fill="#ff3b5c" opacity="0.95"/><line x1="103" y1="288.8538421038538" x2="103" y2="364.83300623856485" stroke="#ff3b5c" stroke-width="2" opacity="0.95"/><rect x="98" y="296.8538421038538" width="10" height="59.97916413471103" rx="2" fill="#ff3b5c" opacity="0.95"/><line x1="125" y1="315.36142720934004" x2="125" y2="366.18139682803303" stroke="#ff3b5c" stroke-width="2" opacity="0.95"/><rect x="120" y="323.36142720934004" width="10" height="34.819969618692994" rx="2" fill="#ff3b5c" opacity="0.95"/><line x1="147" y1="306.51192597299814" x2="147" y2="351.6891326904297" stroke="#22e58b" stroke-width="2" opacity="0.95"/><rect x="142" y="314.51192597299814" width="10" height="29.177206717431545" rx="2" fill="#22e58b" opacity="0.95"/><line x1="169" y1="311.7874733703211" x2="169" y2="338.1353133274242" stroke="#22e58b" stroke-width="2" opacity="0.95"/><rect x="164" y="319.7874733703211" width="10" height="10.347839957103133" rx="2" fill="#22e58b" opacity="0.95"/><line x1="191" y1="313.3424038719386" x2="191" y2="365.53229864127934" stroke="#ff3b5c" stroke-width="2" opacity="0.95"/><rect x="186" y="321.3424038719386" width="10" height="36.189894769340754" rx="2" fill="#ff3b5c" opacity="0.95"/><line x1="213" y1="328.83863776456565" x2="213" y2="370.8257726849988" stroke="#ff3b5c" stroke-width="2" opacity="0.95"/><rect x="208" y="336.83863776456565" width="10" height="25.987134920433164" rx="2" fill="#ff3b5c" opacity="0.95"/><line x1="235" y1="339.68596917018294" x2="235" y2="377.1483297161758" stroke="#ff3b5c" stroke-width="2" opacity="0.95"/><rect x="230" y="347.68596917018294" width="10" height="21.46236054599285" rx="2" fill="#ff3b5c" opacity="0.95"/><line x1="257" y1="311.5190697843209" x2="257" y2="370.73915829416364" stroke="#22e58b" stroke-width="2" opacity="0.95"/><rect x="252" y="319.5190697843209" width="10" height="43.22008850984275" rx="2" fill="#22e58b" opacity="0.95"/><line x1="279" y1="318.21632722206414" x2="279" y2="401.78367277793586" stroke="#ff3b5c" stroke-width="2" opacity="0.95"/><rect x="274" y="326.21632722206414" width="10" height="67.56734555587173" rx="2" fill="#ff3b5c" opacity="0.95"/><line x1="301" y1="335.7259882641956" x2="301" y2="384.2740117358044" stroke="#ff3b5c" stroke-width="2" opacity="0.95"/><rect x="296" y="343.7259882641956" width="10" height="32.54802347160876" rx="2" fill="#ff3b5c" opacity="0.95"/><line x1="323" y1="322.559142883867" x2="323" y2="397.440857116133" stroke="#ff3b5c" stroke-width="2" opacity="0.95"/><rect x="318" y="330.559142883867" width="10" height="58.88171423226595" rx="2" fill="#ff3b5c" opacity="0.95"/><line x1="345" y1="315.9350543403998" x2="345" y2="372.0072161844" stroke="#22e58b" stroke-width="2" opacity="0.95"/><rect x="340" y="323.9350543403998" width="10" height="40.07216184400022" rx="2" fill="#22e58b" opacity="0.95"/><line x1="367" y1="333.47179162688553" x2="367" y2="374.4652279820293" stroke="#ff3b5c" stroke-width="2" opacity="0.95"/><rect x="362" y="341.47179162688553" width="10" height="24.993436355143785" rx="2" fill="#ff3b5c" opacity="0.95"/><line x1="389" y1="319.7381728729233" x2="389" y2="400.2618271270767" stroke="#ff3b5c" stroke-width="2" opacity="0.95"/><rect x="384" y="327.7381728729233" width="10" height="64.52365425415337" rx="2" fill="#ff3b5c" opacity="0.95"/></g><rect x="183" y="110" width="8" height="10" fill="#333"/><rect x="218" y="72" width="50" height="38" rx="4" fill="#0b0f18" stroke="#2c3550" stroke-width="3"/><g transform="translate(221 75) scale(0.11 0.08)"><line x1="15" y1="198.60713802697137" x2="15" y2="229.48809577478096" stroke="#22e58b" stroke-width="2" opacity="0.95"/><rect x="10" y="206.60713802697137" width="10" height="14.880957747809589" rx="2" fill="#22e58b" opacity="0.95"/><line x1="37" y1="202.3830508547835" x2="37" y2="255.0287113157101" stroke="#ff3b5c" stroke-width="2" opacity="0.95"/><rect x="32" y="210.3830508547835" width="10" height="36.64566046092659" rx="2" fill="#ff3b5c" opacity="0.95"/><line x1="59" y1="173.8992650755681" x2="59" y2="241.90661619743332" stroke="#22e58b" stroke-width="2" opacity="0.95"/><rect x="54" y="181.8992650755681" width="10" height="52.00735112186521" rx="2" fill="#22e58b" opacity="0.95"/><line x1="81" y1="171.9215225330554" x2="81" y2="219.01198709243909" stroke="#22e58b" stroke-width="2" opacity="0.95"/><rect x="76" y="179.9215225330554" width="10" height="31.09046455938369" rx="2" fill="#22e58b" opacity="0.95"/><line x1="103" y1="130.3832884398289" x2="103" y2="209.80936218751594" stroke="#22e58b" stroke-width="2" opacity="0.95"/><rect x="98" y="138.3832884398289" width="10" height="63.42607374768704" rx="2" fill="#22e58b" opacity="0.95"/><line x1="125" y1="147.77849549008533" x2="125" y2="179.687195294071" stroke="#22e58b" stroke-width="2" opacity="0.95"/><rect x="120" y="155.77849549008533" width="10" height="15.908699803985655" rx="2" fill="#22e58b" opacity="0.95"/><line x1="147" y1="132.0752077237703" x2="147" y2="174.36147179966792" stroke="#22e58b" stroke-width="2" opacity="0.95"/><rect x="142" y="140.0752077237703" width="10" height="26.286264075897634" rx="2" fill="#22e58b" opacity="0.95"/><line x1="169" y1="141.38698442047462" x2="169" y2="195.7005378329195" stroke="#ff3b5c" stroke-width="2" opacity="0.95"/><rect x="164" y="149.38698442047462" width="10" height="38.31355341244489" rx="2" fill="#ff3b5c" opacity="0.95"/><line x1="191" y1="156.83356978045776" x2="191" y2="209.93548324285075" stroke="#ff3b5c" stroke-width="2" opacity="0.95"/><rect x="186" y="164.83356978045776" width="10" height="37.101913462392986" rx="2" fill="#ff3b5c" opacity="0.95"/><line x1="213" y1="158.109945777338" x2="213" y2="193.30392437102273" stroke="#22e58b" stroke-width="2" opacity="0.95"/><rect x="208" y="166.109945777338" width="10" height="19.193978593684733" rx="2" fill="#22e58b" opacity="0.95"/><line x1="235" y1="117.99805337423459" x2="235" y2="189.23014415195212" stroke="#22e58b" stroke-width="2" opacity="0.95"/><rect x="230" y="125.99805337423459" width="10" height="55.23209077771753" rx="2" fill="#22e58b" opacity="0.95"/><line x1="257" y1="102.84371058410034" x2="257" y2="166.3663641163148" stroke="#22e58b" stroke-width="2" opacity="0.95"/><rect x="252" y="110.84371058410034" width="10" height="47.52265353221446" rx="2" fill="#22e58b" opacity="0.95"/><line x1="279" y1="95.93662766041234" x2="279" y2="146.01263842685148" stroke="#22e58b" stroke-width="2" opacity="0.95"/><rect x="274" y="103.93662766041234" width="10" height="34.07601076643914" rx="2" fill="#22e58b" opacity="0.95"/><line x1="301" y1="96.25935233337805" x2="301" y2="130.83188645588234" stroke="#22e58b" stroke-width="2" opacity="0.95"/><rect x="296" y="104.25935233337805" width="10" height="18.572534122504294" rx="2" fill="#22e58b" opacity="0.95"/><line x1="323" y1="101.95357477897778" x2="323" y2="153.8740209355019" stroke="#ff3b5c" stroke-width="2" opacity="0.95"/><rect x="318" y="109.95357477897778" width="10" height="35.92044615652412" rx="2" fill="#ff3b5c" opacity="0.95"/><line x1="345" y1="75.4722474492155" x2="345" y2="140.85174790257588" stroke="#22e58b" stroke-width="2" opacity="0.95"/><rect x="340" y="83.4722474492155" width="10" height="49.37950045336038" rx="2" fill="#22e58b" opacity="0.95"/><line x1="367" y1="44.92271250905469" x2="367" y2="122.29969602776691" stroke="#22e58b" stroke-width="2" opacity="0.95"/><rect x="362" y="52.92271250905469" width="10" height="61.37698351871222" rx="2" fill="#22e58b" opacity="0.95"/><line x1="389" y1="21.711466930340976" x2="389" y2="97.60006397264078" stroke="#22e58b" stroke-width="2" opacity="0.95"/><rect x="384" y="29.711466930340976" width="10" height="59.88859704229981" rx="2" fill="#22e58b" opacity="0.95"/></g><rect x="239" y="110" width="8" height="10" fill="#333"/><rect x="300" y="120" width="22" height="50" rx="3" fill="#15182a" stroke="url(#rgb)" stroke-width="2"/><rect x="164" y="164" width="52" height="6" rx="2" fill="#2a2e3a"/><path d="M172 236h36M190 236v-24" stroke="#222" stroke-width="5"/><rect x="170" y="186" width="40" height="28" rx="8" fill="#e63946"/><g transform="translate(20 140) scale(.6)"><path d="M78 56l16-14v28z" fill="#2385bd"/><ellipse cx="48" cy="56" rx="32" ry="23" fill="#46a8e0"/><path d="M40 40q8-10 18 0" fill="#2385bd"/><circle cx="32" cy="50" r="7" fill="#fff"/><circle cx="32" cy="50" r="7" fill="#fff"/><circle cx="33.5" cy="51.5" r="3.15" fill="#111"/><circle cx="33.5" cy="51.5" r="3.15" fill="#111"/><path d="M24 49h16M24 49h16" stroke="#1a1a1a" stroke-width="3"/><path d="M21 64q6 6 10 -4" fill="none" stroke="#3a1a1a" stroke-width="3" stroke-linecap="round"/><path d="M32 30l6-14 6 9 6-12 6 12 6-9 6 14z" fill="#ffd23f" stroke="#c99a00" stroke-width="1.5"/></g></svg>