<svg xmlns="http://www.w3.org/2000/svg" viewBox="0 0 400 260">
<defs><linearGradient id="w" x1="0" y1="0" x2="0" y2="1"><stop offset="0" stop-color="#14162a"/><stop offset="1" stop-color="#0a0a12"/></linearGradient>
<linearGradient id="rgb" x1="0" x2="1"><stop offset="0" stop-color="#ff3d81"/><stop offset=".5" stop-color="#3fa7ff"/><stop offset="1" stop-color="#22e58b"/></linearGradient></defs>
<rect width="400" height="200" fill="url(#w)"/><rect y="200" width="400" height="60" fill="#22223a"/><rect x="290" y="30" width="80" height="70" rx="4" fill="#0e1a33" stroke="#3a3f55" stroke-width="4"/><g transform="translate(290 30) scale(.2 .175)"><circle cx="95.2" cy="190.3" r="0.84" fill="#fff" opacity="0.80"/><circle cx="286.6" cy="93.7" r="1.30" fill="#fff" opacity="0.35"/><circle cx="20.5" cy="226.0" r="0.52" fill="#fff" opacity="0.31"/><circle cx="199.3" cy="167.5" r="0.67" fill="#fff" opacity="0.79"/><circle cx="189.4" cy="100.8" r="1.98" fill="#fff" opacity="0.26"/><circle cx="392.1" cy="92.5" r="1.75" fill="#fff" opacity="0.62"/><circle cx="239.8" cy="123.4" r="2.16" fill="#fff" opacity="0.51"/><circle cx="200.9" cy="57.2" r="0.91" fill="#fff" opacity="0.76"/><circle cx="75.0" cy="106.3" r="2.16" fill="#fff" opacity="0.37"/><circle cx="357.0" cy="73.4" r="1.24" fill="#fff" opacity="0.41"/><circle cx="355.1" cy="138.7" r="1.11" fill="#fff" opacity="0.62"/><circle cx="40.8" cy="41.6" r="0.54" fill="#fff" opacity="0.30"/><circle cx="313.4" cy="74.9" r="0.58" fill="#fff" opacity="0.52"/><circle cx="61.1" cy="92.9" r="0.40" fill="#fff" opacity="0.67"/><circle cx="97.8" cy="79.3" r="1.42" fill="#fff" opacity="0.70"/><circle cx="159.1" cy="167.1" r="0.66" fill="#fff" opacity="0.36"/><circle cx="37.1" cy="147.2" r="2.05" fill="#fff" opacity="0.86"/><circle cx="36.6" cy="126.6" r="0.68" fill="#fff" opacity="0.52"/><circle cx="32.4" cy="162.9" r="1.83" fill="#fff" opacity="0.73"/><circle cx="110.7" cy="147.4" r="2.08" fill="#fff" opacity="0.24"/><circle cx="273.8" cy="232.5" r="0.48" fill="#fff" opacity="0.60"/><circle cx="392.2" cy="85.3" r="2.18" fill="#fff" opacity="0.40"/><circle cx="81.6" cy="254.3" r="0.77" fill="#fff" opacity="0.28"/><circle cx="289.8" cy="159.5" r="1.43" fill="#fff" opacity="0.76"/><circle cx="72.4" cy="24.8" r="1.89" fill="#fff" opacity="0.47"/><circle cx="138.9" cy="91.4" r="1.56" fill="#fff" opacity="0.40"/><circle cx="51.2" cy="141.1" r="1.45" fill="#fff" opacity="0.34"/><circle cx="55.3" cy="80.2" r="1.59" fill="#fff" opacity="0.49"/><circle cx="227.1" cy="59.6" r="0.76" fill="#fff" opacity="0.38"/><circle cx="114.5" cy="234.8" r="0.67" fill="#fff" opacity="0.63"/><circle cx="155.3" cy="70.5" r="0.74" fill="#fff" opacity="0.85"/><circle cx="255.2" cy="21.9" r="0.60" fill="#fff" opacity="0.32"/><circle cx="203.1" cy="169.6" r="1.18" fill="#fff" opacity="0.46"/><circle cx="308.7" cy="69.8" r="0.82" fill="#fff" opacity="0.23"/><circle cx="341.3" cy="245.1" r="1.37" fill="#fff" opacity="0.47"/><circle cx="152.2" cy="89.3" r="2.06" fill="#fff" opacity="0.33"/><circle cx="261.1" cy="21.4" r="0.42" fill="#fff" opacity="0.76"/><circle cx="388.3" cy="190.5" r="0.64" fill="#fff" opacity="0.53"/><circle cx="14.7" cy="59.2" r="0.87" fill="#fff" opacity="0.42"/><circle cx="348.4" cy="135.6" r="0.44" fill="#fff" opacity="0.26"/></g><path d="M330 30v70M290 65h80" stroke="#3a3f55" stroke-width="3"/><rect x="30" y="34" width="44" height="58" rx="3" fill="#ffd23f"/><g transform="translate(32 40) scale(.4)"><ellipse cx="50" cy="62" rx="32" ry="24" fill="#5fbf4a"/><circle cx="34" cy="40" r="13" fill="#5fbf4a"/><circle cx="66" cy="40" r="13" fill="#5fbf4a"/><ellipse cx="50" cy="70" rx="22" ry="10" fill="#82e26d" opacity=".5"/><circle cx="34" cy="40" r="8" fill="#fff"/><circle cx="66" cy="40" r="8" fill="#fff"/><circle cx="35.5" cy="41.5" r="3.6" fill="#111"/><circle cx="67.5" cy="41.5" r="3.6" fill="#111"/><path d="M25 39h18M57 39h18" stroke="#1a1a1a" stroke-width="3"/><path d="M28 64q22 12 44 0" fill="none" stroke="#3c9c27" stroke-width="4" stroke-linecap="round"/></g><rect x="86" y="30" width="40" height="40" rx="3" fill="#3fa7ff"/><text x="106" y="57" text-anchor="middle" font-size="22" font-weight="800" fill="#fff" font-family="sans-serif">₿</text><rect x="0" y="196" width="400" height="5" fill="url(#rgb)" opacity="0.8"/><rect x="65" y="170" width="250" height="12" rx="3" fill="#2b2f40"/><rect x="73" y="182" width="8" height="40" fill="#3a2a1e"/><rect x="299" y="182" width="8" height="40" fill="#3a2a1e"/><rect x="91" y="118" width="60" height="38" rx="4" fill="#0b0f18" stroke="#2c3550" stroke-width="3"/><g transform="translate(94 121) scale(0.135 0.08)"><line x1="15" y1="159.05722099728882" x2="15" y2="233.88253100030124" stroke="#22e58b" stroke-width="2" opacity="0.95"/><rect x="10" y="167.05722099728882" width="10" height="58.82531000301242" rx="2" fill="#22e58b" opacity="0.95"/><line x1="37" y1="184.35776483919472" x2="37" y2="241.4788764351979" stroke="#ff3b5c" stroke-width="2" opacity="0.95"/><rect x="32" y="192.35776483919472" width="10" height="41.121111596003175" rx="2" fill="#ff3b5c" opacity="0.95"/><line x1="59" y1="195.52137519419193" x2="59" y2="221.962425686419" stroke="#22e58b" stroke-width="2" opacity="0.95"/><rect x="54" y="203.52137519419193" width="10" height="10.441050492227077" rx="2" fill="#22e58b" opacity="0.95"/><line x1="81" y1="167.5669807465747" x2="81" y2="220.42800262849778" stroke="#22e58b" stroke-width="2" opacity="0.95"/><rect x="76" y="175.5669807465747" width="10" height="36.86102188192308" rx="2" fill="#22e58b" opacity="0.95"/><line x1="103" y1="152.46949160657823" x2="103" y2="205.7228250298649" stroke="#22e58b" stroke-width="2" opacity="0.95"/><rect x="98" y="160.46949160657823" width="10" height="37.253333423286676" rx="2" fill="#22e58b" opacity="0.95"/><line x1="125" y1="109.27475766371936" x2="125" y2="193.96520283538848" stroke="#22e58b" stroke-width="2" opacity="0.95"/><rect x="120" y="117.27475766371936" width="10" height="68.69044517166913" rx="2" fill="#22e58b" opacity="0.95"/><line x1="147" y1="108.91613314673305" x2="147" y2="163.47596326097846" stroke="#22e58b" stroke-width="2" opacity="0.95"/><rect x="142" y="116.91613314673305" width="10" height="38.559830114245415" rx="2" fill="#22e58b" opacity="0.95"/><line x1="169" y1="74.94240287784487" x2="169" y2="150.11311990674585" stroke="#22e58b" stroke-width="2" opacity="0.95"/><rect x="164" y="82.94240287784487" width="10" height="59.17071702890098" rx="2" fill="#22e58b" opacity="0.95"/><line x1="191" y1="91.6564598698169" x2="191" y2="121.95790600590408" stroke="#22e58b" stroke-width="2" opacity="0.95"/><rect x="186" y="99.6564598698169" width="10" height="14.30144613608718" rx="2" fill="#22e58b" opacity="0.95"/><line x1="213" y1="36.68658485170454" x2="213" y2="121.70947161410004" stroke="#22e58b" stroke-width="2" opacity="0.95"/><rect x="208" y="44.68658485170454" width="10" height="69.0228867623955" rx="2" fill="#22e58b" opacity="0.95"/><line x1="235" y1="66.09914473444223" x2="235" y2="133.08797971904278" stroke="#ff3b5c" stroke-width="2" opacity="0.95"/><rect x="230" y="74.09914473444223" width="10" height="50.988834984600544" rx="2" fill="#ff3b5c" opacity="0.95"/><line x1="257" y1="37.63088705111295" x2="257" y2="113.58941502403468" stroke="#22e58b" stroke-width="2" opacity="0.95"/><rect x="252" y="45.63088705111295" width="10" height="59.95852797292173" rx="2" fill="#22e58b" opacity="0.95"/><line x1="279" y1="39.38670858554542" x2="279" y2="86.74608908779919" stroke="#22e58b" stroke-width="2" opacity="0.95"/><rect x="274" y="47.38670858554542" width="10" height="31.35938050225377" rx="2" fill="#22e58b" opacity="0.95"/><line x1="301" y1="-1.9798839250579476" x2="301" y2="81.97988392505795" stroke="#22e58b" stroke-width="2" opacity="0.95"/><rect x="296" y="6.020116074942052" width="10" height="67.9597678501159" rx="2" fill="#22e58b" opacity="0.95"/><line x1="323" y1="-2.9760740250349045" x2="323" y2="82.9760740250349" stroke="#22e58b" stroke-width="2" opacity="0.95"/><rect x="318" y="5.0239259749650955" width="10" height="69.95214805006981" rx="2" fill="#22e58b" opacity="0.95"/><line x1="345" y1="3.651982390321791" x2="345" y2="76.34801760967821" stroke="#22e58b" stroke-width="2" opacity="0.95"/><rect x="340" y="11.651982390321791" width="10" height="56.69603521935642" rx="2" fill="#22e58b" opacity="0.95"/><line x1="367" y1="6.1058477852493525" x2="367" y2="73.89415221475065" stroke="#22e58b" stroke-width="2" opacity="0.95"/><rect x="362" y="14.105847785249352" width="10" height="51.788304429501295" rx="2" fill="#22e58b" opacity="0.95"/><line x1="389" y1="4.117486330680549" x2="389" y2="75.88251366931945" stroke="#22e58b" stroke-width="2" opacity="0.95"/><rect x="384" y="12.11748633068055" width="10" height="55.7650273386389" rx="2" fill="#22e58b" opacity="0.95"/></g><rect x="117" y="156" width="8" height="10" fill="#333"/><rect x="157" y="118" width="60" height="38" rx="4" fill="#0b0f18" stroke="#2c3550" stroke-width="3"/><g transform="translate(160 121) scale(0.135 0.08)"><line x1="15" y1="205.57324640871957" x2="15" y2="285.8407823215239" stroke="#ff3b5c" stroke-width="2" opacity="0.95"/><rect x="10" y="213.57324640871957" width="10" height="64.2675359128043" rx="2" fill="#ff3b5c" opacity="0.95"/><line x1="37" y1="233.3728050100617" x2="37" y2="292.7148985606618" stroke="#ff3b5c" stroke-width="2" opacity="0.95"/><rect x="32" y="241.3728050100617" width="10" height="43.34209355060011" rx="2" fill="#ff3b5c" opacity="0.95"/><line x1="59" y1="249.5134815336205" x2="59" y2="320.8171840510331" stroke="#ff3b5c" stroke-width="2" opacity="0.95"/><rect x="54" y="257.5134815336205" width="10" height="55.3037025174126" rx="2" fill="#ff3b5c" opacity="0.95"/><line x1="81" y1="273.98231283342466" x2="81" y2="321.81251242244616" stroke="#ff3b5c" stroke-width="2" opacity="0.95"/><rect x="76" y="281.98231283342466" width="10" height="31.830199589021504" rx="2" fill="#ff3b5c" opacity="0.95"/><line x1="103" y1="285.82738832430914" x2="103" y2="342.52763136057183" stroke="#ff3b5c" stroke-width="2" opacity="0.95"/><rect x="98" y="293.82738832430914" width="10" height="40.70024303626269" rx="2" fill="#ff3b5c" opacity="0.95"/><line x1="125" y1="261.3762520211749" x2="125" y2="327.15542737813666" stroke="#22e58b" stroke-width="2" opacity="0.95"/><rect x="120" y="269.3762520211749" width="10" height="49.77917535696179" rx="2" fill="#22e58b" opacity="0.95"/><line x1="147" y1="282.6989509523846" x2="147" y2="334.3678384250961" stroke="#ff3b5c" stroke-width="2" opacity="0.95"/><rect x="142" y="290.6989509523846" width="10" height="35.6688874727115" rx="2" fill="#ff3b5c" opacity="0.95"/><line x1="169" y1="297.8197516403161" x2="169" y2="340.95618212455884" stroke="#ff3b5c" stroke-width="2" opacity="0.95"/><rect x="164" y="305.8197516403161" width="10" height="27.136430484242737" rx="2" fill="#ff3b5c" opacity="0.95"/><line x1="191" y1="309.8666203995235" x2="191" y2="341.08008522866294" stroke="#ff3b5c" stroke-width="2" opacity="0.95"/><rect x="186" y="317.8666203995235" width="10" height="15.213464829139411" rx="2" fill="#ff3b5c" opacity="0.95"/><line x1="213" y1="311.2503797705285" x2="213" y2="389.4801102061756" stroke="#ff3b5c" stroke-width="2" opacity="0.95"/><rect x="208" y="319.2503797705285" width="10" height="62.22973043564707" rx="2" fill="#ff3b5c" opacity="0.95"/><line x1="235" y1="320.08253629365936" x2="235" y2="360.8411015099846" stroke="#22e58b" stroke-width="2" opacity="0.95"/><rect x="230" y="328.08253629365936" width="10" height="24.758565216325223" rx="2" fill="#22e58b" opacity="0.95"/><line x1="257" y1="319.8694535023533" x2="257" y2="400.1305464976467" stroke="#ff3b5c" stroke-width="2" opacity="0.95"/><rect x="252" y="327.8694535023533" width="10" height="64.26109299529344" rx="2" fill="#ff3b5c" opacity="0.95"/><line x1="279" y1="299.91875885846093" x2="279" y2="373.7868045712821" stroke="#22e58b" stroke-width="2" opacity="0.95"/><rect x="274" y="307.91875885846093" width="10" height="57.868045712821186" rx="2" fill="#22e58b" opacity="0.95"/><line x1="301" y1="323.4543538647704" x2="301" y2="393.4386323657818" stroke="#ff3b5c" stroke-width="2" opacity="0.95"/><rect x="296" y="331.4543538647704" width="10" height="53.98427850101143" rx="2" fill="#ff3b5c" opacity="0.95"/><line x1="323" y1="308.1547011383809" x2="323" y2="371.1455811127089" stroke="#22e58b" stroke-width="2" opacity="0.95"/><rect x="318" y="316.1547011383809" width="10" height="46.99087997432798" rx="2" fill="#22e58b" opacity="0.95"/><line x1="345" y1="318.9983130856417" x2="345" y2="401.0016869143583" stroke="#ff3b5c" stroke-width="2" opacity="0.95"/><rect x="340" y="326.9983130856417" width="10" height="66.00337382871658" rx="2" fill="#ff3b5c" opacity="0.95"/><line x1="367" y1="337.91407420346513" x2="367" y2="382.08592579653487" stroke="#ff3b5c" stroke-width="2" opacity="0.95"/><rect x="362" y="345.91407420346513" width="10" height="28.171851593069732" rx="2" fill="#ff3b5c" opacity="0.95"/><line x1="389" y1="326.43501493660733" x2="389" y2="393.56498506339267" stroke="#ff3b5c" stroke-width="2" opacity="0.95"/><rect x="384" y="334.43501493660733" width="10" height="51.12997012678534" rx="2" fill="#ff3b5c" opacity="0.95"/></g><rect x="183" y="156" width="8" height="10" fill="#333"/><rect x="223" y="118" width="60" height="38" rx="4" fill="#0b0f18" stroke="#2c3550" stroke-width="3"/><g transform="translate(226 121) scale(0.135 0.08)"><line x1="15" y1="149.26121435966343" x2="15" y2="234.97097618225962" stroke="#22e58b" stroke-width="2" opacity="0.95"/><rect x="10" y="157.26121435966343" width="10" height="69.70976182259619" rx="2" fill="#22e58b" opacity="0.95"/><line x1="37" y1="143.10932731628418" x2="37" y2="204.67240282148123" stroke="#22e58b" stroke-width="2" opacity="0.95"/><rect x="32" y="151.10932731628418" width="10" height="45.56307550519705" rx="2" fill="#22e58b" opacity="0.95"/><line x1="59" y1="161.8742296146229" x2="59" y2="218.04058415722102" stroke="#ff3b5c" stroke-width="2" opacity="0.95"/><rect x="54" y="169.8742296146229" width="10" height="40.16635454259813" rx="2" fill="#ff3b5c" opacity="0.95"/><line x1="81" y1="157.83796731941402" x2="81" y2="200.63734461553395" stroke="#22e58b" stroke-width="2" opacity="0.95"/><rect x="76" y="165.83796731941402" width="10" height="26.79937729611993" rx="2" fill="#22e58b" opacity="0.95"/><line x1="103" y1="131.50521858315915" x2="103" y2="191.65237123239785" stroke="#22e58b" stroke-width="2" opacity="0.95"/><rect x="98" y="139.50521858315915" width="10" height="44.147152649238706" rx="2" fill="#22e58b" opacity="0.95"/><line x1="125" y1="125.7976799197495" x2="125" y2="172.66558546200395" stroke="#22e58b" stroke-width="2" opacity="0.95"/><rect x="120" y="133.7976799197495" width="10" height="30.867905542254448" rx="2" fill="#22e58b" opacity="0.95"/><line x1="147" y1="111.73148234281689" x2="147" y2="160.50942717399448" stroke="#22e58b" stroke-width="2" opacity="0.95"/><rect x="142" y="119.73148234281689" width="10" height="32.77794483117759" rx="2" fill="#22e58b" opacity="0.95"/><line x1="169" y1="78.52852521277964" x2="169" y2="149.63066915236413" stroke="#22e58b" stroke-width="2" opacity="0.95"/><rect x="164" y="86.52852521277964" width="10" height="55.102143939584494" rx="2" fill="#22e58b" opacity="0.95"/><line x1="191" y1="91.56666201259941" x2="191" y2="123.69214553479105" stroke="#22e58b" stroke-width="2" opacity="0.95"/><rect x="186" y="99.56666201259941" width="10" height="16.125483522191644" rx="2" fill="#22e58b" opacity="0.95"/><line x1="213" y1="49.736487075686455" x2="213" y2="121.1730611845851" stroke="#22e58b" stroke-width="2" opacity="0.95"/><rect x="208" y="57.736487075686455" width="10" height="55.43657410889864" rx="2" fill="#22e58b" opacity="0.95"/><line x1="235" y1="24.779308226890862" x2="235" y2="99.30760367494076" stroke="#22e58b" stroke-width="2" opacity="0.95"/><rect x="230" y="32.77930822689086" width="10" height="58.5282954480499" rx="2" fill="#22e58b" opacity="0.95"/><line x1="257" y1="-2.281829008832574" x2="257" y2="82.28182900883257" stroke="#22e58b" stroke-width="2" opacity="0.95"/><rect x="252" y="5.718170991167426" width="10" height="68.56365801766515" rx="2" fill="#22e58b" opacity="0.95"/><line x1="279" y1="29.56232890766114" x2="279" y2="69.93903983104974" stroke="#ff3b5c" stroke-width="2" opacity="0.95"/><rect x="274" y="37.56232890766114" width="10" height="24.3767109233886" rx="2" fill="#ff3b5c" opacity="0.95"/><line x1="301" y1="37.74980545416474" x2="301" y2="93.75859460607171" stroke="#ff3b5c" stroke-width="2" opacity="0.95"/><rect x="296" y="45.74980545416474" width="10" height="40.00878915190697" rx="2" fill="#ff3b5c" opacity="0.95"/><line x1="323" y1="36.12754932139069" x2="323" y2="76.15716121997684" stroke="#22e58b" stroke-width="2" opacity="0.95"/><rect x="318" y="44.12754932139069" width="10" height="24.029611898586154" rx="2" fill="#22e58b" opacity="0.95"/><line x1="345" y1="34.362714076414704" x2="345" y2="65.67342651449144" stroke="#22e58b" stroke-width="2" opacity="0.95"/><rect x="340" y="42.362714076414704" width="10" height="15.310712438076735" rx="2" fill="#22e58b" opacity="0.95"/><line x1="367" y1="-0.27769937831908464" x2="367" y2="80.27769937831908" stroke="#22e58b" stroke-width="2" opacity="0.95"/><rect x="362" y="7.722300621680915" width="10" height="64.55539875663817" rx="2" fill="#22e58b" opacity="0.95"/><line x1="389" y1="8.752543542534113" x2="389" y2="71.24745645746589" stroke="#22e58b" stroke-width="2" opacity="0.95"/><rect x="384" y="16.752543542534113" width="10" height="46.494912914931774" rx="2" fill="#22e58b" opacity="0.95"/></g><rect x="249" y="156" width="8" height="10" fill="#333"/><rect x="285" y="120" width="22" height="50" rx="3" fill="#15182a" stroke="url(#rgb)" stroke-width="2"/><rect x="164" y="164" width="52" height="6" rx="2" fill="#2a2e3a"/><path d="M172 236h36M190 236v-24" stroke="#222" stroke-width="5"/><rect x="170" y="186" width="40" height="28" rx="8" fill="#e63946"/></svg>